<?xml version="1.0" encoding="utf-8"?>
<!-- Generator: Adobe Illustrator 23.0.1, SVG Export Plug-In . SVG Version: 6.00 Build 0)  -->
<svg version="1.1" id="Layer_1" xmlns="http://www.w3.org/2000/svg" xmlns:xlink="http://www.w3.org/1999/xlink" x="0px" y="0px"
	 viewBox="0 0 511 511" style="enable-background:new 0 0 511 511;" xml:space="preserve">
<style type="text/css">
	.st0{fill:#A81010;}
</style>
<path class="st0" d="M133.4,153.6l70.1,70.1l21.2-21.2l-70.1-70.1V76.2L48.9,0L1,47.9l76.2,105.7H133.4z"/>
<path class="st0" d="M358.6,26.3C313,72,340.5,125.9,340.7,128.9L129.9,339.7c-3-0.2-56.8-27.9-102.6,17.9
	c-26.9,26.9-33.9,68-17.6,102.2L69.6,400l42.3,42.3l-59.9,59.9c33.5,16,74.7,10,102.2-17.6c45.7-45.7,18.2-99.6,17.9-102.6
	l210.8-210.8c3,0.3,57,27.8,102.6-17.9c26.9-26.9,33.9-67.9,17.6-102.2L443.3,111L401,68.6l59.9-59.9
	C427.6-7.1,386.4-1.4,358.6,26.3z"/>
<path class="st0" d="M267,329.4l63.5-63.5l21.3,21.3l-63.5,63.5L267,329.4z"/>
<path class="st0" d="M448.5,511l-139-139l63.5-63.5l139,139L448.5,511z"/>
</svg>
