<?xml version="1.0" encoding="utf-8"?>
<!-- Generator: Adobe Illustrator 23.0.1, SVG Export Plug-In . SVG Version: 6.00 Build 0)  -->
<svg version="1.1" id="Layer_1" xmlns="http://www.w3.org/2000/svg" xmlns:xlink="http://www.w3.org/1999/xlink" x="0px" y="0px"
	 viewBox="0 0 48 48" style="enable-background:new 0 0 48 48;" xml:space="preserve">
<style type="text/css">
	.st0{fill:#07439C;}
</style>
<path class="st0" d="M24,3c-1.4,0-2.5,1.1-2.5,2.5c0,1,0.6,1.9,1.5,2.3V11h-4c-3.3,0-6,2.7-6,6s2.7,6,6,6h2v-3h-2c-1.7,0-3-1.3-3-3
	s1.3-3,3-3h1h3h2h3h1.5c0.6,0.6,1.7,1,3,1c1.9,0,3.5-0.9,3.5-2c0-1-1.3-1.9-3-2h-2.5H29h-4V7.8c0.9-0.4,1.5-1.3,1.5-2.3
	C26.5,4.1,25.4,3,24,3z M23,16v1v3v3v2v4c-3.4,0.3-6,3.1-6,6.5c0,2.7,1.7,5,4,6v-3.6c-0.6-0.6-1-1.5-1-2.4c0-1.8,1.3-3.2,3-3.4V32h2
	h3c3.3,0,6-2.7,6-6s-2.7-6-6-6h-3v-4H23z M25,23h3c1.7,0,3,1.3,3,3s-1.3,3-3,3h-3V23z M23,34v2v2.9v3v2v0.5c0,0.6,0.4,1,1,1
	s1-0.4,1-1V42h4c0.8,0,1.5-0.7,1.5-1.5S29.8,39,29,39h-4v-5H23z"/>
</svg>
