<svg id="Layer_1" data-name="Layer 1" xmlns="http://www.w3.org/2000/svg" width="14.11mm" height="13.76mm" viewBox="0 0 40 39"><title>verticals-retail</title><path d="M12,5a1.28,1.28,0,0,0-1,.4l-6.5,6A1.61,1.61,0,0,0,4,12.5v4a7.48,7.48,0,0,0,2,5v21A1.54,1.54,0,0,0,7.5,44h33A1.54,1.54,0,0,0,42,42.5v-21a7.48,7.48,0,0,0,2-5v-4h0a1.61,1.61,0,0,0-.5-1.1L37,5.4A1.28,1.28,0,0,0,36,5Zm.6,3H35.4l3.3,3H9.3ZM7,14h9.3v2.5h0A4.59,4.59,0,0,1,11.6,21,4.57,4.57,0,0,1,7,16.5Zm12.3,0h9.3v2.5a4.7,4.7,0,0,1-9.4,0h0V14Zm12.4,0H41v2.5A4.53,4.53,0,0,1,36.3,21a4.59,4.59,0,0,1-4.7-4.5V14Zm-1.5,6.7A7.76,7.76,0,0,0,36.4,24a8.57,8.57,0,0,0,2.7-.5V41H23V28.5A1.54,1.54,0,0,0,21.5,27h-8A1.54,1.54,0,0,0,12,28.5V41H9V23.5a7.63,7.63,0,0,0,2.7.5,7.72,7.72,0,0,0,6.2-3.1,7.51,7.51,0,0,0,12.3-.2ZM27.5,27A1.54,1.54,0,0,0,26,28.5v7A1.54,1.54,0,0,0,27.5,37h7A1.54,1.54,0,0,0,36,35.5v-7A1.54,1.54,0,0,0,34.5,27ZM15,30h5V41H15Zm14,0h4v4H29Z" transform="translate(-4 -5)" fill="#07439c"/></svg>