<svg id="Layer_1" data-name="Layer 1" xmlns="http://www.w3.org/2000/svg" width="13.43mm" height="13.41mm" viewBox="0 0 38.07 38"><title>verticals-telecom</title><path d="M22.6,5a5.44,5.44,0,0,0-3.9,1.6L16.6,8.7a5.62,5.62,0,0,0,0,7.8l3.6,3.6a6.79,6.79,0,0,0-4.7,2.1,1.45,1.45,0,0,0,0,2.1l3.1,3.1-1.1,1.1a1.48,1.48,0,0,0,2.1,2.1h0l1.1-1.1,3.1,3.1a1.45,1.45,0,0,0,2.1,0A7.28,7.28,0,0,0,28,27.8l3.6,3.6a5.62,5.62,0,0,0,7.8,0l2.1-2.1a5.62,5.62,0,0,0,0-7.8L35,15.1l1.5-1.5a1.48,1.48,0,1,0-2.1-2.1h0L32.9,13,26.5,6.6A5.28,5.28,0,0,0,22.6,5Zm0,3a2.57,2.57,0,0,1,1.8.7l1.4,1.4-5.7,5.7-1.4-1.4a2.42,2.42,0,0,1,0-3.5l2.1-2.1A2.44,2.44,0,0,1,22.6,8Zm5.3,4.2,2.9,2.9-5.7,5.7-2.9-2.9Zm5,5,2.9,2.9-5.7,5.7-2.9-2.9Zm5,5,1.4,1.4a2.42,2.42,0,0,1,0,3.5l-2.1,2.1a2.42,2.42,0,0,1-3.5,0l-1.4-1.4ZM20.6,23a4.32,4.32,0,0,1,3.1,1.3,4.27,4.27,0,0,1,.8,4.9l-5.7-5.7A4.07,4.07,0,0,1,20.6,23ZM6.5,29A1.47,1.47,0,0,0,5,30.5,12.5,12.5,0,0,0,17.5,43a1.5,1.5,0,0,0,0-3h0A9.43,9.43,0,0,1,8,30.5,1.54,1.54,0,0,0,6.5,29Zm6,0A1.54,1.54,0,0,0,11,30.5,6.49,6.49,0,0,0,17.5,37a1.5,1.5,0,0,0,0-3h0A3.42,3.42,0,0,1,14,30.5,1.54,1.54,0,0,0,12.5,29Z" transform="translate(-5 -5)" fill="#a81010"/></svg>