<svg id="Layer_1" data-name="Layer 1" xmlns="http://www.w3.org/2000/svg" width="12.39mm" height="12.38mm" viewBox="0 0 35.13 35.09"><title>verticals-aerospace</title><path d="M36.9,7.1a5.2,5.2,0,0,0-3.5,1.6h0l-4.8,5.1-15-4.4h0a4.39,4.39,0,0,0-4.8,1.3,3.4,3.4,0,0,0,.5,4.9h.1L19.9,23,15,28.1l-2-.6a4.44,4.44,0,0,0-4.9.9,3.35,3.35,0,0,0,0,4.8l.2.2,1.3.9.2-.3a4.09,4.09,0,0,0,.5,5,4.06,4.06,0,0,0,5,.5l-.3.2.9,1.3c0,.1.1.1.2.2a3.44,3.44,0,0,0,4.8,0,4.47,4.47,0,0,0,.9-4.9l-.6-2,5.1-4.9,7.4,10.4v.1a3.4,3.4,0,0,0,4.9.5h0a4.39,4.39,0,0,0,1.3-4.8h0l-4.4-15,5.1-4.8h0a5,5,0,0,0,.3-7.1l-.1-.1A5.38,5.38,0,0,0,36.9,7.1Zm.1,3a2.3,2.3,0,0,1,1.4.4,2.27,2.27,0,0,1-.2,2.9l-5.7,5.4a1.44,1.44,0,0,0-.4,1.5l4.7,15.8h0a1.56,1.56,0,0,1-.4,1.6c-.1.3-.4.3-.5.1L27.5,26a1.46,1.46,0,0,0-2.1-.3c-.1,0-.1.1-.2.1l-7,6.8a1.44,1.44,0,0,0-.4,1.5l.9,2.9a.35.35,0,0,0,.1.2,1.36,1.36,0,0,1-.3,1.7.45.45,0,0,1-.5,0l-1.6-2.3a1.57,1.57,0,0,0-2.1-.4l-.9.6h0a.93.93,0,0,1-1.3-1.3h0l.6-.9a1.48,1.48,0,0,0-.4-2.1L10.1,31a.45.45,0,0,1,0-.5h0a1.75,1.75,0,0,1,1.7-.3c.1,0,.1.1.2.1l2.9.9a1.44,1.44,0,0,0,1.5-.4l6.8-7a1.45,1.45,0,0,0,0-2.1c-.1-.1-.1-.1-.2-.1L11.2,13.2a.48.48,0,0,1-.1-.6,1.38,1.38,0,0,1,1.6-.4h0l15.8,4.7a1.44,1.44,0,0,0,1.5-.4l5.4-5.7A3.74,3.74,0,0,1,37,10.1Z" transform="translate(-7.09 -7.09)" fill="#0f4b9c"/></svg>