<svg id="Layer_1" data-name="Layer 1" xmlns="http://www.w3.org/2000/svg" width="12.58mm" height="12.7mm" viewBox="0 0 35.65 36"><title>verticals-finance</title><path d="M35.5,6A1.47,1.47,0,0,0,34,7.5v.7a4.71,4.71,0,0,0-3.5,4.5h0a4.87,4.87,0,0,0,4.8,4.8h1.5a1.8,1.8,0,1,1,0,3.6H35a1.3,1.3,0,0,1-1.3-1,1.46,1.46,0,0,0-1.9-1,1.5,1.5,0,0,0-1,1.9v.1a4.48,4.48,0,0,0,3.3,2.8v.8a1.5,1.5,0,0,0,3,0h0V24a4.72,4.72,0,0,0,4.5-4.7,4.87,4.87,0,0,0-4.8-4.8H35.3a1.79,1.79,0,0,1-1.8-1.8h0a1.77,1.77,0,0,1,1.7-1.8H36a1.3,1.3,0,0,1,1.3,1,1.52,1.52,0,1,0,2.9-.9h0a4.48,4.48,0,0,0-3.3-2.8V7.5A1.39,1.39,0,0,0,35.5,6Zm-12,7h-8a1.5,1.5,0,0,0,0,3h4.4L6.4,29.4a1.48,1.48,0,0,0,2.1,2.1h0L22,18.1v4.4a1.5,1.5,0,0,0,3,0h0V14.7A1.55,1.55,0,0,0,23.7,13Zm0,15A1.54,1.54,0,0,0,22,29.5v11a1.5,1.5,0,0,0,3,0h0v-11A1.54,1.54,0,0,0,23.5,28Zm8,0A1.54,1.54,0,0,0,30,29.5v11a1.5,1.5,0,0,0,3,0h0v-11A1.54,1.54,0,0,0,31.5,28Zm8,0A1.54,1.54,0,0,0,38,29.5v11a1.5,1.5,0,0,0,3,0h0v-11A1.54,1.54,0,0,0,39.5,28Zm-24,5A1.54,1.54,0,0,0,14,34.5v6a1.5,1.5,0,0,0,3,0h0v-6A1.54,1.54,0,0,0,15.5,33Zm-8,5A1.47,1.47,0,0,0,6,39.5v1A1.54,1.54,0,0,0,7.5,42,1.47,1.47,0,0,0,9,40.5H9v-1A1.54,1.54,0,0,0,7.5,38Z" transform="translate(-5.95 -6)" fill="#a81010"/></svg>