<svg id="Layer_1" data-name="Layer 1" xmlns="http://www.w3.org/2000/svg" width="14.11mm" height="15.17mm" viewBox="0 0 40 43"><title>verticals-technology</title><path d="M18.5,3A3.54,3.54,0,0,0,15,6.5v5A3.54,3.54,0,0,0,18.5,15h4v2H15.9A3.48,3.48,0,0,0,13,18.6a4.66,4.66,0,0,0-2-.6,4,4,0,0,0-3,1.3,4.15,4.15,0,0,0,0,5.4,4.23,4.23,0,0,0,.7.5L7.3,32.1a4,4,0,0,0-2,.9A4,4,0,0,0,4,36a1.54,1.54,0,0,0,1.5,1.5A1.47,1.47,0,0,0,7,36H7a.86.86,0,0,1,.3-.8A.84.84,0,0,1,8,35a1.17,1.17,0,0,1,.7.2A1,1,0,0,1,9,36a1.54,1.54,0,0,0,1.5,1.5A1.47,1.47,0,0,0,12,36h0a4,4,0,0,0-1.3-3c-.2-.1-.3-.2-.5-.3l1.4-6.8a3.82,3.82,0,0,0,1.6-.6l1.5,7.8h0A3.52,3.52,0,0,0,18,35.9v5.6A4.48,4.48,0,0,0,22.5,46h3A4.48,4.48,0,0,0,30,41.5V35.9a3.52,3.52,0,0,0,3.3-2.8h0l1.5-7.8a4.42,4.42,0,0,0,1.6.6l1.4,6.8a2.19,2.19,0,0,0-.5.3A4,4,0,0,0,36,36a1.54,1.54,0,0,0,1.5,1.5A1.47,1.47,0,0,0,39,36h0a.86.86,0,0,1,.3-.8A.84.84,0,0,1,40,35a1.17,1.17,0,0,1,.7.2,1,1,0,0,1,.3.8,1.54,1.54,0,0,0,1.5,1.5A1.47,1.47,0,0,0,44,36h0a3.79,3.79,0,0,0-3.3-3.9l-1.4-6.9c.2-.2.5-.3.7-.5a4.15,4.15,0,0,0,0-5.4A4,4,0,0,0,37,18a3.17,3.17,0,0,0-2,.6A3.59,3.59,0,0,0,32.1,17H25.5V15h4A3.54,3.54,0,0,0,33,11.5v-5A3.54,3.54,0,0,0,29.5,3Zm0,3h11a.47.47,0,0,1,.5.5v5a.47.47,0,0,1-.5.5h-11a.47.47,0,0,1-.5-.5v-5A.47.47,0,0,1,18.5,6ZM21,8a.94.94,0,0,0-1,1,1,1,0,0,0,2,0A.94.94,0,0,0,21,8Zm6,0a.94.94,0,0,0-1,1,1,1,0,0,0,2,0A.94.94,0,0,0,27,8ZM15.9,20H32.1a.5.5,0,0,1,.5.6l-2.3,12a.46.46,0,0,1-.5.4H18.2c-.3,0-.4-.2-.5-.4l-2.3-12A.56.56,0,0,1,15.9,20ZM11,21a.86.86,0,0,1,.8.3,1.45,1.45,0,0,1,.2.7,1.17,1.17,0,0,1-.2.7.86.86,0,0,1-.8.3.86.86,0,0,1-.8-.3,1.33,1.33,0,0,1,0-1.4A.86.86,0,0,1,11,21Zm26,0a.86.86,0,0,1,.8.3.84.84,0,0,1,.2.7,1.17,1.17,0,0,1-.2.7,1,1,0,0,1-.8.3.86.86,0,0,1-.8-.3A.84.84,0,0,1,36,22a1.17,1.17,0,0,1,.2-.7A1,1,0,0,1,37,21ZM21,36h6v3H26a1,1,0,0,0,0,2h1v.5A1.54,1.54,0,0,1,25.5,43h-3A1.54,1.54,0,0,1,21,41.5V41h1a1,1,0,0,0,0-2H21Z" transform="translate(-4 -3)" fill="#07439c"/></svg>