<svg id="Layer_1" data-name="Layer 1" xmlns="http://www.w3.org/2000/svg" xmlns:xlink="http://www.w3.org/1999/xlink" width="1015.89301" height="231.71747" viewBox="0 0 1015.890625 231.71875"><title>ASB icon </title>  <defs>    <style>      .cls-1 {        fill: url(#linear-gradient);      }      .cls-2 {        fill: url(#linear-gradient-2);      }      .cls-3 {        fill: url(#linear-gradient-3);      }      .cls-4 {        fill: url(#linear-gradient-4);      }      .cls-5 {        fill: url(#linear-gradient-5);      }      .cls-6 {        fill: #c7b299;      }      .cls-7 {        fill: #07439c;      }    </style>    <linearGradient id="linear-gradient" x1="1281.76949" y1="946.24802" x2="-42.65156" y2="1280.47959" gradientUnits="userSpaceOnUse">      <stop offset="0" stop-color="#999"></stop>      <stop offset="1"></stop>    </linearGradient>    <linearGradient id="linear-gradient-2" x1="1384.85133" y1="841.42418" x2="483.33554" y2="1022.18207" gradientUnits="userSpaceOnUse">      <stop offset="0" stop-color="#00a99d"></stop>      <stop offset="1"></stop>    </linearGradient>    <linearGradient id="linear-gradient-3" x1="1415.52918" y1="994.42754" x2="514.01339" y2="1175.18544" xlink:href="#linear-gradient-2"></linearGradient>    <linearGradient id="linear-gradient-4" x1="1414.45842" y1="989.08721" x2="512.94263" y2="1169.84511" xlink:href="#linear-gradient-2"></linearGradient>    <linearGradient id="linear-gradient-5" x1="1397.38589" y1="903.93927" x2="495.8701" y2="1084.69717" xlink:href="#linear-gradient-2"></linearGradient>  </defs>  <title>api-service-bus-train-icon</title>  <g>    <path class="cls-1" d="M1080.68086,1030.10448c-8.5614-8.56146-25.58532-19.16674-35.67126-29.77642h.907c-.05151-.06006-.08911-.13-.13525-.19391h-8.18945a30.20729,30.20729,0,0,1-21.83106-9.32947l-.17456-.1745-35.3584-36.94873L213.14577,1118.25426l108.84888-9.81439s123.93878-9.504,139.45538-10.51257q107.85-7.0404,215.71936-14.13934,12.685-.81464,25.36969-1.64856,117.71274-7.68073,235.42548-15.30329c12.70416-.8341,25.36975-2.13348,38.07385-2.59894,19.08545-.71789,36.92944-3.54956,54.09473,13.26661,10.493,10.2796,30.832,15.50122,57.13366,15.50122C1101.17366,1066.60766,1106.98506,1056.40868,1080.68086,1030.10448Z" transform="translate(-213.14577 -892.37469)"></path>    <g>      <path class="cls-2" d="M900.09151,952.33849c53.05151-11.93622,70.33044-17.777,160.62817-17.777,28.90638,0,35.67371.17028,56.7804.17028-20.60156-27.67767-45.804-40.6391-76.55982-41.47192-33.43945-.90552-67.02417-1.62158-100.35778.51013-23.22828,1.48535-47.00428,5.29785-69.04383,12.57868-94.65936,31.2716-188.76422,64.21881-283.07647,96.54022-39.03168,13.37622-164.55573,52.95233-161.554,52.29748C566.60268,1024.71075,760.60128,983.7221,900.09151,952.33849Z" transform="translate(-213.14577 -892.37469)"></path>      <path class="cls-3" d="M1187.29671,1107.52837q-9.54254.23254-19.08521.42664c-32.27465.65936-64.588.87292-96.78491-.75647-16.273-.83386-36.75488-3.89856-47.24792-14.17816-17.16541-16.81623-35.0094-13.9845-54.09485-13.2666-12.7041.46545-25.36957,1.76483-38.07379,2.59893q-117.71256,7.68074-235.42548,15.30329-120.56387,7.85513-241.089,15.7879c-44.746,2.92877-131.6195,9.40711-141.31738,10.51257a4.27454,4.27454,0,0,0-.89221.13569h911.15368C1213.81087,1110.96142,1202.17342,1107.15972,1187.29671,1107.52837Z" transform="translate(-213.14577 -892.37469)"></path>      <path class="cls-4" d="M1229.03035,1069.49737c-.11645-8.61182-4.01489-18.42591-9.23242-25.44721a243.3007,243.3007,0,0,0-31.57629-34.11725c-5.21741-4.7713-13.286-8.82495-20.17151-8.98-23.68225-.56256-47.38379-.582-71.10486-.50433-12.54895.03882-42.083-.31648-52.38282-.31648,10.08594,10.60968,20.01136,21.65181,28.93348,29.83674,18.7362,17.16517,28.16247,36.30878,13.77087,63.03614,24.59387,0,48.14026.01941,71.27942.01941,15.439,0,30.70337,0,45.94849-.01941C1223.05648,1092.98559,1229.30184,1088.13665,1229.03035,1069.49737Z" transform="translate(-213.14577 -892.37469)"></path>      <path class="cls-5" d="M1163.80608,984.94484c-26.68994,0-52.27.1-77.42993.04-15.71-.04-31.24-.13-46.80005-.33-4.91992-.06-10.72-3.08-14.50995-6.53-4.05005-3.71-7.89-7.68-11.99005-12.09h66.77l-9.89-8.97h-65.13c-2.1-2.29-4.33-4.7-6.72-7.24,20.89,0,130.72-.56,130.72-.56s2.94995,2.86,7.91,7.8h-36.45007l9.89014,8.97h35.44995C1150.89617,971.40486,1157.10613,977.83485,1163.80608,984.94484Z" transform="translate(-213.14577 -892.37469)"></path>    </g>    <path class="cls-6" d="M989.17107,949.12328" transform="translate(-213.14577 -892.37469)"></path>    <path class="cls-7" d="M1058.78615,1001.06764" transform="translate(-213.14577 -892.37469)"></path>    <path class="cls-7" d="M1058.76021,1000.123" transform="translate(-213.14577 -892.37469)"></path>  </g></svg>