<svg xmlns="http://www.w3.org/2000/svg" viewBox="0 0 600 600"><defs><style>.cls-1{fill:#cdd5d8;}.cls-2{fill:#e5e5e5;}.cls-3{fill:#5f9ca4;}.cls-4{fill:#004ab3;}.cls-5{fill:#336ec2;}.cls-6{fill:#72bcc5;}.cls-7{fill:#d1ecfb;}.cls-8{fill:#e6e6e6;}.cls-9{fill:#e51818;}.cls-10{fill:#ea4646;}.cls-11{fill:#474f59;}.cls-12{fill:#dce4e7;}.cls-13{fill:#596273;}.cls-14{fill:#fff;}.cls-15{fill:#f6f2f1;}</style></defs><g id="_04" data-name="04"><path class="cls-1" d="M215.38,364.84c80.72,0,146.4-65.68,146.4-146.43S296.1,72,215.38,72"/><path class="cls-2" d="M215.38,72c-80.74,0-146.45,65.7-146.45,146.4s65.71,146.43,146.45,146.43"/><path class="cls-3" d="M355.44,258.23c-1.93,0-4.44.95-4.46,1.6s-2.71,1.86-3.59,2.22-2.57,3.07-3,3.95-2.53.64-3.34,1-2.44,1.69-2.47,2.48-.45.72-1-.2l-1.06,1.11-1.25,1.39c-.72,2.26-3.09,5.09-3.92,5.34s-.95,4.17-.95,5.76a7.46,7.46,0,0,0,1.38,4.38l.15,1.26.3,2.51a4.5,4.5,0,0,0,1.46,4c.41.34,4.05-.66,5.43-1a7.18,7.18,0,0,0,2-.79,145.16,145.16,0,0,0,15.09-35A3.64,3.64,0,0,0,355.44,258.23Z"/><path class="cls-3" d="M113.68,262c-.2.42,2.42,3.1,3.44,4s3.15,5.34,3.59,6.78a10.75,10.75,0,0,1,0,4.36c-.14.55.5,1.77.6,2.26s-.9,4.83-.52,6.55-2,7.16-2,9.83,1.27,6.18,1.76,5.91.68,2.47-.15,2.78-1.77,2.46-1.32,2.58,0,2.21.1,3,.83,6.44,1,7.82,2.14,4.77,2.55,5.92.84,3.34,1,3.66a5.18,5.18,0,0,0,.39.7,12,12,0,0,1,2.08.95c.49.36,3.61.11,4.63-.09s.1-1.15-.37-1.65-.87-3-1.41-3.23-.75-3.41-.29-4.09,2.34-1.83,2.55-2.42.26-3.32-.23-3.7.14-3.71-.25-5.36,2.87-3.16,3.08-4.47,3.7-2.73,4.5-3.39,1.48-4.4,1.12-5.21,1.29-1.47,2-1.47a10,10,0,0,0,1.88-.54c.27,0,1.18-1.68,1.65-2.06s1.48-4.34,2.34-5,1.61-3.05,1.61-3.75,1.33-2.8,1.77-3.43,3.73-2.15,4.33-2.37,1.47-5.52,1.69-7.42,1.22-4.44,1.29-5.05,1.12-1.15,1.31-1.36a31.84,31.84,0,0,1,1.49-3.18c.5-.55,2.33-2.85,2.37-3.37a20.78,20.78,0,0,1,.61-2.93v-1.29l0-2.06c-.58-1.6-2.34-3.56-2.81-3.14s-2.47-1.4-3.5-1.8a19.58,19.58,0,0,0-4.3-.7c-.65,0-2.91-1.86-3.93-2.17s-3.59-.82-4.07-1.13-1.1-4.13-3.19-5.4-5.74-4.2-6.15-5.29-4.4-3.31-5.63-4-3.12-.86-3.34-.62-1.79-2.07-2.58-2.75-3.18-1.19-3.3-.61-1.69.3-2.07-.2-1.61.2-2.2.39-2.57,3.23-3.47,4-2-.68-2.62-1-2.89.45-3.53.9-2.06-3.23-1.73-4.92-1.51-5-3-5.13-1.86-3.59-1.57-4.9-2.58-2.1-3.28-2.19-2.51,1.74-2.81,2.62-6.79-1.2-6-5.09a17.77,17.77,0,0,1,4.58-8.37c.77-.48,4.94-.73,5.86-.2a1.52,1.52,0,0,0,1.91-.23c.15-.25,3.55,0,4.56.45s2.47,4.34,3.51,4.81,1.45-2.52,1.63-3.25a7.94,7.94,0,0,0-.77-3.14c-.25-.52,1.68-5.29,3.28-6.1s3.26-3.46,3.12-3.9,1.27-.86,1.63-1.05-.05-4,.58-4.88a19.29,19.29,0,0,1,4.55-3c.94-.38,1.65-2.82,1.32-3.25s2.43-2.78,3.88-3.25,2.69.83,2.33,1c.29-.15,2.28-1.19,3.14-1.76s0-2.43-.63-3-.25-2.62.51-2.8,1.44-2,1.23-2.37,3.19.29,4.49-.65.35,2.3-.6,3.61a1.48,1.48,0,0,0,1.31,2.28c.6-.25,1.25.7,1.36,1.06s1.44-.36,2.28,0,1.36-1.17,1.43-1.87-2.05-2.19-2.36-3-.47-5.83-.51-6.84-1.43-2.67-1.87-2.38-1.34-2.64-2-3.27a3.67,3.67,0,0,1-.85-2.51c0-.48-2.39-3-3-4.17s-1.41-1-1.46-.44-1.74.63-2.45.57-1.26-2.75-1.26-3.77-3.15-1.18-3.65-2-2.56-.43-2.88-1a3.22,3.22,0,0,0-2.5-.88c-.38.2-.19,7.5-.53,9.46s-2,3.68-2.63,3.64-.24,1.4.18,1.26-1.18,2.15-1.39,3.64-1.74-.07-2-1.43-1.71-3.18-2-2.7-1.29-.57-1.74-.28-3.25-1.62-4.38-2.26-1.76-4-2.4-4.35-.11-.73-.13-1.24,2.2-2.56,2.86-3.35a41.3,41.3,0,0,1,4-4.63,4.24,4.24,0,0,0,1.54-2.83c-.17-.31,4.11-1.64,5.27-2.05s2.16-3.63,2.32-4.56a3.84,3.84,0,0,0-1.26-2.91c-.55-.23,1.61-.33,2.32,0s2.92-.66,3.8-.18,2.62,1.49,3.89,2.3l-.28,2.37-.5,4c-3.38,1.41-4.33,3.82-3.17,3.75s6.57,2.35,8.1,3.44,2-1.59,2.43-2.47a6.66,6.66,0,0,0-.05-4c-.37-.52,1.75-.34,2.34.25s1.31-.59,1.76-.81.69-2.4.94-2.85-1-.9-1-1.45-2.46-1.62-3.24-2-1-2-.59-2.33-.28-2.41-.66-3.12-2.9-1.28-3.74-1.28-1.72-2-2.2-2.24a13.47,13.47,0,0,0-4.54-.41c-.8.25-2.27-2.3-3.62-1.51s-2.76-.91-3.36-1.24-3.79,3.07-3.77,5.46,1.24,4.7,1.74,4.77-.11,2.23-.66,2.84-1.89-.65-1.38-1.19-1.38-3-2-4.07c-.46-.72-2.11-1.38-3.22-1.83-.66.7-1.3,1.43-1.93,2.17a5.08,5.08,0,0,1,.25,2.85c-.46,1.46-1.68,1.69-1.76,1.06,0-.29-.64-.5-1.38-.59A145.75,145.75,0,0,0,70,201.34a9.4,9.4,0,0,1,1.71,2.43c.41,1.29,2.63,2.13,3.06,2.4s.55-2.46.26-3.17.54-1.13.52-.6,2.11,2.91,2.8,3.77,1.43,6.43,2.1,7.66,7.11,3.68,9.18,4.11a11,11,0,0,1,5.1,3.43c.41.66,3.16,1,3.75,1.26s2,2.15,2.6,2.54a3.25,3.25,0,0,1,1,1.8c0,.3,3.66,1.67,4.54,2.64a2,2,0,0,0,2.6.3c.29-.41,1,1.94,1.38,2.76a5,5,0,0,1,.17,3.11c-.29.31-.81,4-1.42,4.69s-1.89,6.06-1.64,7.12a8.34,8.34,0,0,0,2.73,3.55c.74.31.42,1.44-.14,1.54s-.32,5.14,1.05,5.89S113.89,261.57,113.68,262Z"/><path class="cls-3" d="M130.92,172.78h0S130.87,172.81,130.92,172.78Z"/><path class="cls-3" d="M120.91,111c1.75-.29,4.66-.78,4.85-1.26a2.93,2.93,0,0,0-.15-2c.29,0,.61,0,.86,0,.65,0,1.76-3.64,2.46-4.49s4.72-2.11,5.67-2.7,3.05-2.59,3.84-2.81,2-2.13,1.8-2.49,2.71-2.12,3.83-2.6,1.64-1.76,1.23-1.8c-.25,0-6.38,3.16-12,6.34a150,150,0,0,0-18,14.45C117.06,111.55,119.76,111.24,120.91,111Z"/><path class="cls-4" d="M226.81,293.26c1.86-1.1,5.05-5.8,6.1-6.79s1.8-4.55,2-5.33a5.24,5.24,0,0,1,2.38-2.22c.61-.16,2.5-8.06,4.16-9.78s3.64-10.07,3.42-13.08,1.07-8.72,1.48-10.1a13,13,0,0,1,3.12-4.3,96,96,0,0,0,6-8.61c1.29-2.12,2.51-6.83,2.27-7.91s-3.06-1.87-3.58-1.33-3.15,1-4,1-2.79-4.51-4-5.44-2.29-6.12-3-7.09-2.62-3.46-3.21-4.05-.72-3.29-.86-4,1.17.48,1.4,1.58,3.32,5.49,4.29,7,3.48,6.21,4.12,7.7,6.27.73,8.1-.13,4.11-2.33,4.19-2.83,3-1.85,3.81-2.5,1.52-4,2.06-4.56-.44-3.8-1-4.75-3.52-1.73-4.12-1.35-1.85-2.17-2.31-3.1-2.67-2.08-2.91-2.73.61-1.65,1-1.88,4.46,2.67,5.65,4.11a30.56,30.56,0,0,1,2.76,4.54c.2.46,3.48.7,4.2.17a1.13,1.13,0,0,1,1.83.29l1-.16,3.57-.57c1.68,1.83,2.18,3.42,2.13,3.77a3.43,3.43,0,0,0,1.72,2c.69.19,1.19,2.51,1.41,3.08s2.25,4.09,2.66,5.55a35.9,35.9,0,0,0,2.56,5.1,12,12,0,0,1,.77,3.6,2.63,2.63,0,0,0,2.11,1.76c.8-.06,2.44-5.17,2.82-7.07s1.69-3.48,2.06-3.48.67-1.06.67-1.47,2.08-.36,2.26-.88.8-3.9,1.53-4.4a28.3,28.3,0,0,1,4.27-2.54c.91-.33,3.26,1.7,3.79,2.65a8.41,8.41,0,0,1,.79,3.72c-.2.39,1.23,2.47,2.5,2.45s1.63,1.58,1.64,2.16,1.72,2.24,2.05,3a6.18,6.18,0,0,1,0,3.23,12,12,0,0,0,.17,3.91c.23.74,4.08,4.63,5.52,5.8s2.11-2.39,1.37-3.52-3.23-3.71-3.82-4.47-.7-3.89-.48-4.77,2.2.48,3,1.11a6.14,6.14,0,0,1,1.93,2.51c0,.44,5.17-2.43,5.36-5.56s1.88-6.64,2.05-7.48-.5-2-.94-2,.77-2.39,2.22-2.34,4.91-3.84,5.74-5.36a11.82,11.82,0,0,1,2.66-3,28,28,0,0,0,1.55-5.31c.21-1.51-.85-3.87-1-4.63a15,15,0,0,0-1.7-3.12,6.83,6.83,0,0,1-.41-3.07c.19-.38,1.47-.81,1.63-1.15s1.63-1.94,1.52-2.65.92.91,1.61,1.5,1.42,4.31,2.25,4.72,4.27-4,3.83-6.78,1-6.44,1.82-6.75c.63-.25,2.23-2.53,3.32-4.16a146.57,146.57,0,0,0-36.05-56.83,4.7,4.7,0,0,1-.55,0l-1.27-.27c-2.09-.45-3.31-2.69-2.95-3.21a1.57,1.57,0,0,0,0-1q-1.77-1.59-3.59-3.12c-1,0-2,0-2.65,0a11.2,11.2,0,0,1-4.46-1.42c-.5-.5-2.15.42-2.25,1.33s-3,1.33-3.24,2a1.52,1.52,0,0,1-2,.34c-.3-.38-2.95,1-4.27,1.13a22,22,0,0,0-4.38,1.54,6.71,6.71,0,0,0-2.21,2.19c-.22.56-1.93,1.51-2.48,1.73s-.43,2.7.26,3-1.29-.3-2.17-.75-1.88,1-2.16,1.55-1.09-.29-1.06-1-2.18-1.34-2.48-.75-1.84-.2-2.48-.51-3.38,2.52-4.41,3.56-5.91,1.83-6.82,1.43-1.82,2.18-1,2.34-2-.14-3.49,0a23.84,23.84,0,0,0-7,2.68,1.14,1.14,0,0,1-1.91-.76c0-.62-1.68-1.18-2.18-1.34s-1.48,3.3-2.34,4-1.93-2.69-4-3.26-5.29-2.55-6.21-2.77-2.74-2.18-3.25-2.74-3.17-1-4-1-3.59,1.55-4.31,2.18-1.84.5-2.2.73-3.45,3.23-4.64,4.18-3.29,5-4,6a2.79,2.79,0,0,1-2.08,1.18c-.4,0-.73,1.11-.73,1.51s-3.53,2.24-3.9,3.84.35,5.29.35,6.6,1.29,3.91,2.29,3.93.47,2.23.21,2.85.63,1.26.58,1.78-2.49,1.24-3.24,1.55a5.79,5.79,0,0,0-2.16,2.62c-.13.57-2.49,1-3.27,1.72.2-.54.46-1.28.66-1.72a2.85,2.85,0,0,0-.53-2.66c-.38-.31-.54-4.56-1.15-5.49a20.35,20.35,0,0,0-2.45-2.76c-.38-.29.25-1.41.46-1.89s-2-.75-2.58-.38-.91,4.55-1.18,5.71,1.1,2.91,1.45,3,.26,2.16-.5,2.23-1.48,3.09-1.09,3.79-.56,2-1,2.36,3,.13,4.53.11,2.77.65,2.61.77-3,.53-3.49,1.21-2.42,2-2.79,2.46.63,1.68,1.45,1.61,1.73,2.83,2.36,3.34.4,2,.13,2.42-4.11-.29-5.54.09-3.29,3.41-3.42,4.56a28.88,28.88,0,0,0,.44,5.4c.18.92,3.2,1.49,3.82,1.94s3.53,0,4.14.3,2.55-2.94,2.93-4.43,3.48-4.25,4.14-5.28,4-.91,4.78-1.43.36,2.53.75,4.2,3.59,1.47,3.11-.11.33-2.26.46-1.67,3.21,1.8,3.79,2.68.41,2.78-.27,2.76-.72,2.08,0,2.31,1.68-2.38,2.45-2.74,1.39-2,1-2.12.65-1.56,1.1-1.09-1.64-3.14-2.95-4.44-.39-.73,2,1.3l1.69,2.35c.32.43.76,1.72,1.05,2.19l.39.7a16.3,16.3,0,0,1,.63,3.69,2.68,2.68,0,0,0,2.12,1.76c.8-.07,1.41.38,1.24.41s.54,1.6,1.33,1.64,1.14-2,.34-2.08-.67-3-.78-4.31.58-2.35.85-2.35,0,2.67,0,3.27a9,9,0,0,0,.72,2.68l.82.63,1.86,1.42c2.66-.79,6.21-.18,6.07.36s2,.68,2.08-.21.23,0,.23.64-1.74,3-2,4.06-6.42.37-9.07.14-6.51.7-6.81,1.49-4.4-1.81-6.28-2.6-3.37-3.68-3.75-4,.32-1.31.13-1.87-4.48-.69-5.71-.23-7.71,1.15-9.23,1.81-3.83,0-4.55-.16-2.43,2-3.28,2.35-2,3.36-2.45,6.64l-1.18,2.3-.74,1.45c-2.14,1.62-4.5,7-5.2,8.1s-1.24,8.88-1.24,11.5,2.29,8.16,2.93,9.69,4.6,4.9,5.92,5.74,5.6.88,7,.88a4.26,4.26,0,0,0,3.54-3L198,233l.94.08c.05,1.16,3.1,2.08,3.85,2.49s2.73.09,3.34-.07,1.27,5.19.83,6.76,1,7,1.49,8.64,2.31,6.13,2.5,7.75-1.09,7-1.29,8.84,2.32,7.11,3,8.91a30.13,30.13,0,0,1,1.21,6.6c0,.9,2.79,6.33,3.42,8.56S224.92,294.37,226.81,293.26Z"/><path class="cls-3" d="M347.5,226.79c.19.41,1.94-1,3-1.15s1.72-3,.89-3.21-1.86-2.39-2.46-2.64-1.76.92-1.71,1.78-1.91,1.23-2.3,1.92-.34,1.22.07,1.16S347.33,226.41,347.5,226.79Z"/><path class="cls-3" d="M345.35,242.17c.52-.18-.06-3-1.15-3.23s-4.15,3.69-3.57,5.94,1.22,2.13,1.54,1.63,2.12.31,2.65.5.53-.36,0-1.2S344.82,242.38,345.35,242.17Z"/><path class="cls-3" d="M339.36,239.44c.12-1,.32-4.11.48-4.72s-1.69-2.44-2.62-2.76-3.86,6.08-6,7.23-2.88,5-2.33,5.94,5,1.35,5.75,2.06,1.64-.12,2.09-.23.34-.41.15-.52,1.56-1.94,1.8-3.1S339.23,240.43,339.36,239.44Z"/><path class="cls-3" d="M327.33,250.12c-1.66-.66-3.62.34-3.76,1s6.38,1.7,8.56,2.29,3.52.79,3,.4S329,250.73,327.33,250.12Z"/><path class="cls-3" d="M340.61,207.53c.54-.75-.72-4.19-1.36-3.4s-.17,2.76,0,3.46S340.09,208.24,340.61,207.53Z"/><path class="cls-3" d="M344.57,214.86c.38-.88-.47-1.85-1.9-2.16s-1.2,4-.58,4.51S344.18,215.74,344.57,214.86Z"/><path class="cls-3" d="M351.94,241.27c1.7,1.17,5.47.63,5.59-1.65C355.85,238.52,351.79,238.69,351.94,241.27Z"/><path class="cls-3" d="M351,189a2.34,2.34,0,0,0-.87,2.26,1.37,1.37,0,0,0-.29,0c-.56,0-.64,2.24,0,2.62s2-1.74,2.75-2.26a4.06,4.06,0,0,1,2.48-.63c.22.16,1.54-.25,2.92-.88a2.61,2.61,0,0,0,.83-1c-.32-1.64-.72-3.25-1.1-4.85-.72.52-1.51,1.08-1.88,1.4C355.11,186.34,352,188.39,351,189Z"/><path class="cls-3" d="M312.32,234h0C312.05,233.77,312,233.74,312.32,234Z"/><path class="cls-3" d="M322.87,243.8a17.74,17.74,0,0,0-4.51-5.22l-.72-1.17-.75-1.27c-.69-1.4-2.79-2.48-3-2.92s-.85,1.23-1.57.75c.38.27,1.17.84,2.27,1.61,2,1.39,5.76,10.93,6.61,11.61S323.48,245.18,322.87,243.8Z"/><path class="cls-3" d="M292.64,228.4c-.53,1,2.8,3.36,3.07,2.84s-.43-3.18-1-3.77S293.18,227.31,292.64,228.4Z"/><path class="cls-3" d="M248.41,279.32c.13,1.13,2.42,2,3.09,1.86s2.54-3.62,2.8-4.61a23.75,23.75,0,0,0,.46-3.62,3.41,3.41,0,0,1,.57-1.78,6.08,6.08,0,0,0,.94-2.57c.25-1.31-1.39-7.32-1.44-8.36s-1.22.54-1.52,1.6-3.32,3.26-4,4.16-1.4,4-1.15,4.52a6.74,6.74,0,0,1-.55,3.2C247.33,274.29,248.29,278.19,248.41,279.32Z"/><path class="cls-3" d="M140.45,321h2C142.84,318.76,140.35,319.13,140.45,321Z"/><path class="cls-3" d="M194.11,94.39a6.72,6.72,0,0,1-3.4-.73c-.38-.4-3.64-.74-4.59-.36s-.3-2.3,1-2.6.2-2.14-1.19-2.14-4.86-.52-5.67-.34-2.4-.56-3-.66-4.72,1.25-6.67,1.15a45.3,45.3,0,0,0-7.83.42c-1,.27-1.82,2.3-1.65,3s-4.67.73-6.18.75-9.59,1.74-11.72,2.89-3.73,4.11-3,4.17-1.18,1.74-2.31,2.13-3.82.56-4.46,1.22.67,1.06.92,1.49,1-.39,1.74,0,3,.59,3.67.82-2,.74-3.22.84-1,2.5,0,2.84,3.61.7,3.88.27,3.07.45,4.33.61,2.23,3.32,2.62,4a9.76,9.76,0,0,1,.36,3.79c-.07.7,2.25,2,2.68,1.54s.29,1.08-.64,1-.33,2.6.81,3,.37,2-.28,2.53-.31,2.1-1,2.67,2.39,5.9,2.37,8.63,1.7,5,2.35,5,2.93.56,3.22,1.15,1.39-.4,1.81-.88a20,20,0,0,0,2-2.91c.7-1.16,2.26-6.67,2.46-7.27s2.8-.21,3.39-.53a28.22,28.22,0,0,0,2.75-2c.48-.38,4.16-1.94,5.18-2.68s2.68-3.84,3.46-4.53-.4-.47-1.39-1.1a1.06,1.06,0,0,1-.25-1.74c.28-.29,3.24.5,4.28.91s3-1,2.23-1.57-.36-.53,0-.29.74-1.8.36-2.19,3-2.87,2.4-5.21.94-4.77,1.85-4.8.65-2.64-.45-2.89-.08-.47.35-.86a5.58,5.58,0,0,0,.69-3.15c-.25-.46,1.66-1,2-1.5a9.29,9.29,0,0,1,3.3-1.76C194.52,96.35,195,94.3,194.11,94.39Z"/><path class="cls-3" d="M213.19,96.33c-1.05-.36-3.15.79-2.9,1.45s-1.72-.84-3.1-.14-1.78,3.18-1.15,3.5,1.11,2.26,1.13,2.62,2.69.12,3.38-.45.59,2-.09,2.64.27,2.06,1,2.19S213.22,110,214,110s2.09-3,2.38-4.09,2.86-.25,4.05.11,1.58-4.07.31-4.74-2.84-.34-3.36-.84a4.46,4.46,0,0,0-2-1.08C214.78,99.29,214.21,96.67,213.19,96.33Z"/><path class="cls-5" d="M223.41,98.43c2.07.29,4.39-1.4,4.89-1.9s-5.73-1.74-8.1-1.81-4.28.25-4.25.73S221.34,98.14,223.41,98.43Z"/><path class="cls-3" d="M185.72,154.31c-.54-.22-.84,1.83-.72,2.57s2,.73,2.83.59a1.6,1.6,0,0,0,1.43-1.47c0-.67-1.2-3.7-1.66-3.7S186.26,154.53,185.72,154.31Z"/><path class="cls-3" d="M191.84,130.55c-.41-.75-3.67-.66-4.46-.73a8.9,8.9,0,0,1-3.67-1.35c-.45-.52-.79,2-1.54,2.32s.36.82.67.55,0,1.29-.36,1.81,2.15.92,2.44,1.71a2.12,2.12,0,0,0,2.28,1.2c1-.16,2.94-1.17,3.64-1.24S192.27,131.29,191.84,130.55Z"/><path class="cls-5" d="M259.88,112c1.12-1.1,5.7-2.61,6.22-3.77a1.46,1.46,0,0,0-.78-2.1,1.83,1.83,0,0,0-1.14.77c-.1.18-5.37,1.42-7,2.21a17.72,17.72,0,0,0-4.17,2.67c-.69.67-1.79,5.87-2.17,6.46s1.73,2.7,2.68,3.29a3.48,3.48,0,0,0,2.61.18c.37-.11-.48-3.75-1-5S258.78,113.11,259.88,112Z"/><path class="cls-5" d="M254.26,98.41c1.74,1.72,2.69-.77,4.59-.52C258.81,94.39,254.1,95.58,254.26,98.41Z"/><path class="cls-5" d="M287.89,99.06c0,.63,4.79,1.15,6.2.9s-.28-2.43-2.36-2.32S288,98.41,287.89,99.06Z"/><path class="cls-3" d="M112.72,135c-.5.45-.06,2.82.89,2.9s2.53-3.58,3.71-2.85,2,1,1.81.63-3.6-1.85-4-2.12S113.24,134.48,112.72,135Z"/><path class="cls-3" d="M125.1,215.27c0,.39,2.12.34,2.45-.31s.16-1.15-.42-1.15S125.1,214.86,125.1,215.27Z"/><path class="cls-3" d="M115.71,211.8c1-.19.53,1.44.78,2s2.65,1.06,3.14,1.44,1.73-.72,2.7-.61-.31-3.34-1.94-3.25-2.91-1.47-3.3-1.65a27.58,27.58,0,0,1-2.8-1.76c-.53-.43-4.66-.79-6.07-.79a4.59,4.59,0,0,0-3.17,1.89c-.22.48,2.24.8,2.93.44s4,.4,4.64,1.19A3.68,3.68,0,0,0,115.71,211.8Z"/><path class="cls-3" d="M111.29,215.27c0,.39,2.13.14,2.64.16s.5-.34,0-.77S111.29,214.86,111.29,215.27Z"/><path class="cls-3" d="M112.79,204.32c-.56-.23-1,.63-1,1.05a.7.7,0,0,0,.66.75C112.85,206.12,113.35,204.55,112.79,204.32Z"/><path class="cls-3" d="M117.27,204.66a2.16,2.16,0,0,0-1.37-.75c-.29,0-.48.7-.43,1.56S117.44,205.06,117.27,204.66Z"/><path class="cls-3" d="M120.47,209.6c.87-.4,1-1.44.47-1.4s-1.46-1.47-2-1.7-1,.94-1,1.43.32.83.7.75S119.6,210,120.47,209.6Z"/><path class="cls-3" d="M358.34,243.05c-.44.23-2.6.48-2.87.07s-.72.86-1.17,1.06-.21,1.36.47,1c.49-.25,2.52.88,4.17,1.91.33-1.62.62-3.27.89-4.92C359.23,242.46,358.63,242.9,358.34,243.05Z"/><path class="cls-5" d="M113.68,262c-.2.42,2.42,3.1,3.44,4s3.15,5.34,3.59,6.78a10.75,10.75,0,0,1,0,4.36c-.14.55.5,1.77.6,2.26s-.9,4.83-.52,6.55-2,7.16-2,9.83,1.27,6.18,1.76,5.91.68,2.47-.15,2.78-1.77,2.46-1.32,2.58,0,2.21.1,3,.83,6.44,1,7.82,2.14,4.77,2.55,5.92.84,3.34,1,3.66a5.18,5.18,0,0,0,.39.7,12,12,0,0,1,2.08.95c.49.36,3.61.11,4.63-.09s.1-1.15-.37-1.65-.87-3-1.41-3.23-.75-3.41-.29-4.09,2.34-1.83,2.55-2.42.26-3.32-.23-3.7.14-3.71-.25-5.36,2.87-3.16,3.08-4.47,3.7-2.73,4.5-3.39,1.48-4.4,1.12-5.21,1.29-1.47,2-1.47a10,10,0,0,0,1.88-.54c.27,0,1.18-1.68,1.65-2.06s1.48-4.34,2.34-5,1.61-3.05,1.61-3.75,1.33-2.8,1.77-3.43,3.73-2.15,4.33-2.37,1.47-5.52,1.69-7.42,1.22-4.44,1.29-5.05,1.12-1.15,1.31-1.36a31.84,31.84,0,0,1,1.49-3.18c.5-.55,2.33-2.85,2.37-3.37a20.78,20.78,0,0,1,.61-2.93v-1.29l0-2.06c-.58-1.6-2.34-3.56-2.81-3.14s-2.47-1.4-3.5-1.8a19.58,19.58,0,0,0-4.3-.7c-.65,0-2.91-1.86-3.93-2.17s-3.59-.82-4.07-1.13-1.1-4.13-3.19-5.4-5.74-4.2-6.15-5.29-4.4-3.31-5.63-4-3.12-.86-3.34-.62-1.79-2.07-2.58-2.75-3.18-1.19-3.3-.61-1.69.3-2.07-.2-1.61.2-2.2.39-2.57,3.23-3.47,4-2-.68-2.62-1-2.89.45-3.53.9-2.06-3.23-1.73-4.92-1.51-5-3-5.13-1.86-3.59-1.57-4.9-2.58-2.1-3.28-2.19-2.51,1.74-2.81,2.62-6.79-1.2-6-5.09a17.77,17.77,0,0,1,4.58-8.37c.77-.48,4.94-.73,5.86-.2a1.52,1.52,0,0,0,1.91-.23c.15-.25,3.55,0,4.56.45s2.47,4.34,3.51,4.81,1.45-2.52,1.63-3.25a7.94,7.94,0,0,0-.77-3.14c-.25-.52,1.68-5.29,3.28-6.1s3.26-3.46,3.12-3.9,1.27-.86,1.63-1.05-.05-4,.58-4.88a19.29,19.29,0,0,1,4.55-3c.94-.38,1.65-2.82,1.32-3.25s2.43-2.78,3.88-3.25,2.69.83,2.33,1c.29-.15,2.28-1.19,3.14-1.76s0-2.43-.63-3-.25-2.62.51-2.8,1.44-2,1.23-2.37,3.19.29,4.49-.65.35,2.3-.6,3.61a1.48,1.48,0,0,0,1.31,2.28c.6-.25,1.25.7,1.36,1.06s1.44-.36,2.28,0,1.36-1.17,1.43-1.87-2.05-2.19-2.36-3-.47-5.83-.51-6.84-1.43-2.67-1.87-2.38-1.34-2.64-2-3.27a3.67,3.67,0,0,1-.85-2.51c0-.48-2.39-3-3-4.17s-1.41-1-1.46-.44-1.74.63-2.45.57-1.26-2.75-1.26-3.77-3.15-1.18-3.65-2-2.56-.43-2.88-1a3.22,3.22,0,0,0-2.5-.88c-.38.2-.19,7.5-.53,9.46s-2,3.68-2.63,3.64-.24,1.4.18,1.26-1.18,2.15-1.39,3.64-1.74-.07-2-1.43-1.71-3.18-2-2.7-1.29-.57-1.74-.28-3.25-1.62-4.38-2.26-1.76-4-2.4-4.35-.11-.73-.13-1.24,2.2-2.56,2.86-3.35a41.3,41.3,0,0,1,4-4.63,4.24,4.24,0,0,0,1.54-2.83c-.17-.31,4.11-1.64,5.27-2.05s2.16-3.63,2.32-4.56a3.84,3.84,0,0,0-1.26-2.91c-.55-.23,1.61-.33,2.32,0s2.92-.66,3.8-.18,2.62,1.49,3.89,2.3l-.28,2.37-.5,4c-3.38,1.41-4.33,3.82-3.17,3.75s6.57,2.35,8.1,3.44,2-1.59,2.43-2.47a6.66,6.66,0,0,0-.05-4c-.37-.52,1.75-.34,2.34.25s1.31-.59,1.76-.81.69-2.4.94-2.85-1-.9-1-1.45-2.46-1.62-3.24-2-1-2-.59-2.33-.28-2.41-.66-3.12-2.9-1.28-3.74-1.28-1.72-2-2.2-2.24a13.47,13.47,0,0,0-4.54-.41c-.8.25-2.27-2.3-3.62-1.51s-2.76-.91-3.36-1.24-3.79,3.07-3.77,5.46,1.24,4.7,1.74,4.77-.11,2.23-.66,2.84-1.89-.65-1.38-1.19-1.38-3-2-4.07c-.46-.72-2.11-1.38-3.22-1.83-.66.7-1.3,1.43-1.93,2.17a5.08,5.08,0,0,1,.25,2.85c-.46,1.46-1.68,1.69-1.76,1.06,0-.29-.64-.5-1.38-.59-.65.77-1.28,1.6-1.92,2.4s-1.27,1.6-1.88,2.41-1.34,1.72-2,2.6-1.16,1.58-1.72,2.4c-.83,1.19-1.65,2.39-2.43,3.59s-1.55,2.34-2.26,3.52c-.64,1-1.24,2.05-1.85,3.09-.42.7-.83,1.43-1.23,2.15-.61,1.06-1.21,2.17-1.78,3.25-.33.64-.66,1.27-1,1.9-1.32,2.58-2.59,5.22-3.74,7.88a1.27,1.27,0,0,1-.12.23c-.56,1.3-1.1,2.64-1.63,4-.21.49-.41,1-.62,1.51-.53,1.38-1,2.75-1.53,4.15-.09.23-.16.46-.24.71a141.75,141.75,0,0,0-4.14,14.27c-.09.34-.16.65-.23,1A144,144,0,0,0,70,201.22v.12a9.4,9.4,0,0,1,1.71,2.43c.41,1.29,2.63,2.13,3.06,2.4s.55-2.46.26-3.17.54-1.13.52-.6,2.11,2.91,2.8,3.77,1.43,6.43,2.1,7.66,7.11,3.68,9.18,4.11a11,11,0,0,1,5.1,3.43c.41.66,3.16,1,3.75,1.26s2,2.15,2.6,2.54a3.25,3.25,0,0,1,1,1.8c0,.3,3.66,1.67,4.54,2.64a2,2,0,0,0,2.6.3c.29-.41,1,1.94,1.38,2.76a5,5,0,0,1,.17,3.11c-.29.31-.81,4-1.42,4.69s-1.89,6.06-1.64,7.12a8.34,8.34,0,0,0,2.73,3.55c.74.31.42,1.44-.14,1.54s-.32,5.14,1.05,5.89S113.89,261.57,113.68,262Z"/><path class="cls-5" d="M120.91,111c1.75-.29,4.66-.78,4.85-1.26a2.93,2.93,0,0,0-.15-2c.29,0,.61,0,.86,0,.65,0,1.76-3.64,2.46-4.49s4.72-2.11,5.67-2.7,3.05-2.59,3.84-2.81,2-2.13,1.8-2.49,2.71-2.12,3.83-2.6,1.64-1.76,1.23-1.8c-.25,0-6.38,3.16-12,6.34a.45.45,0,0,1-.14.11c-1.6,1.09-3.19,2.22-4.75,3.37-1.07.79-2.09,1.6-3.14,2.42-.54.45-1.1.85-1.62,1.28-1.25,1-2.47,2-3.66,3.07l-.76.66c-1.33,1.15-2.64,2.35-3.94,3.54C117.06,111.55,119.76,111.24,120.91,111Z"/><path class="cls-5" d="M213.56,182.52c-.69,0-.72,2.08,0,2.31.51.15,1.18-1.18,1.8-2.06v-8.16l-.17-.17c-.86-.88-.74-.91.17-.23v-50.1c-.75.7-1.46,1.36-1.92,1.72-1.21,1-3.29,5-4,6a2.79,2.79,0,0,1-2.08,1.18c-.4,0-.73,1.11-.73,1.51s-3.53,2.24-3.9,3.84.35,5.29.35,6.6,1.29,3.91,2.29,3.93.47,2.23.21,2.85.63,1.26.58,1.78-2.49,1.24-3.24,1.55a5.79,5.79,0,0,0-2.16,2.62c-.13.57-2.49,1-3.27,1.72.2-.54.46-1.28.66-1.72a2.85,2.85,0,0,0-.53-2.66c-.38-.31-.54-4.56-1.15-5.49a20.35,20.35,0,0,0-2.45-2.76c-.38-.29.25-1.41.46-1.89s-2-.75-2.58-.38-.91,4.55-1.18,5.71,1.1,2.91,1.45,3,.26,2.16-.5,2.23-1.48,3.09-1.09,3.79-.56,2-1,2.36,3,.13,4.53.11,2.77.65,2.61.77-3,.53-3.49,1.21-2.42,2-2.79,2.46.63,1.68,1.45,1.61,1.73,2.83,2.36,3.34.4,2,.13,2.42-4.11-.29-5.54.09-3.29,3.41-3.42,4.56a28.88,28.88,0,0,0,.44,5.4c.18.92,3.2,1.49,3.82,1.94s3.53,0,4.14.3,2.55-2.94,2.93-4.43,3.48-4.25,4.14-5.28,4-.91,4.78-1.43.36,2.53.75,4.2,3.59,1.47,3.11-.11.33-2.26.46-1.67,3.21,1.8,3.79,2.68S214.24,182.54,213.56,182.52Z"/><path class="cls-5" d="M215.38,192.44c-.63-.34-1.21-.63-1.66-.82-1.9-.79-3.37-3.68-3.75-4s.32-1.31.13-1.87-4.48-.69-5.71-.23-7.71,1.15-9.23,1.81-3.83,0-4.55-.16-2.43,2-3.28,2.35-2,3.36-2.45,6.64l-1.18,2.3-.74,1.45c-2.14,1.62-4.5,7-5.2,8.1s-1.24,8.88-1.24,11.5,2.29,8.16,2.93,9.69,4.6,4.9,5.92,5.74,5.6.88,7,.88a4.26,4.26,0,0,0,3.54-3L198,233l.94.08c.05,1.16,3.1,2.08,3.85,2.49s2.73.09,3.34-.07,1.27,5.19.83,6.76,1,7,1.49,8.64,2.31,6.13,2.5,7.75-1.09,7-1.29,8.84,2.32,7.11,3,8.91a30.13,30.13,0,0,1,1.21,6.6,20.83,20.83,0,0,0,1.51,3.86Z"/><path class="cls-6" d="M140.45,321h2C142.84,318.76,140.35,319.13,140.45,321Z"/><path class="cls-5" d="M181,120.75c1,.4,3-1,2.23-1.57s-.36-.53,0-.29.74-1.8.36-2.19,3-2.87,2.4-5.21.94-4.77,1.85-4.8.65-2.64-.45-2.89-.08-.47.35-.86a5.58,5.58,0,0,0,.69-3.15c-.25-.46,1.66-1,2-1.5a9.29,9.29,0,0,1,3.3-1.76c.77-.18,1.2-2.23.36-2.14a6.72,6.72,0,0,1-3.4-.73c-.38-.4-3.64-.74-4.59-.36s-.3-2.3,1-2.6.2-2.14-1.19-2.14-4.86-.52-5.67-.34-2.4-.56-3-.66-4.72,1.25-6.67,1.15a45.3,45.3,0,0,0-7.83.42c-1,.27-1.82,2.3-1.65,3s-4.67.73-6.18.75-9.59,1.74-11.72,2.89-3.73,4.11-3,4.17-1.18,1.74-2.31,2.13-3.82.56-4.46,1.22.67,1.06.92,1.49,1-.39,1.74,0,3,.59,3.67.82-2,.74-3.22.84-1,2.5,0,2.84,3.61.7,3.88.27,3.07.45,4.33.61,2.23,3.32,2.62,4a9.76,9.76,0,0,1,.36,3.79c-.07.7,2.25,2,2.68,1.54s.29,1.08-.64,1-.33,2.6.81,3,.37,2-.28,2.53-.31,2.1-1,2.67,2.39,5.9,2.37,8.63,1.7,5,2.35,5,2.93.56,3.22,1.15,1.39-.4,1.81-.88a20,20,0,0,0,2-2.91c.7-1.16,2.26-6.67,2.46-7.27s2.8-.21,3.39-.53a28.22,28.22,0,0,0,2.75-2c.48-.38,4.16-1.94,5.18-2.68s2.68-3.84,3.46-4.53-.4-.47-1.39-1.1a1.06,1.06,0,0,1-.25-1.74C177,119.55,180,120.34,181,120.75Z"/><path class="cls-5" d="M213.19,96.33c-1.05-.36-3.15.79-2.9,1.45s-1.72-.84-3.1-.14-1.78,3.18-1.15,3.5,1.11,2.26,1.13,2.62,2.69.12,3.38-.45.59,2-.09,2.64.27,2.06,1,2.19S213.22,110,214,110c.38,0,.91-.8,1.38-1.68v-9h0C214.78,99.29,214.21,96.67,213.19,96.33Z"/><path class="cls-6" d="M187.83,157.47a1.6,1.6,0,0,0,1.43-1.47c0-.67-1.2-3.7-1.66-3.7s-1.34,2.23-1.88,2-.84,1.83-.72,2.57S187,157.61,187.83,157.47Z"/><path class="cls-5" d="M184.92,134.86a2.12,2.12,0,0,0,2.28,1.2c1-.16,2.94-1.17,3.64-1.24s1.43-3.53,1-4.27-3.67-.66-4.46-.73a8.9,8.9,0,0,1-3.67-1.35c-.45-.52-.79,2-1.54,2.32s.36.82.67.55,0,1.29-.36,1.81S184.63,134.07,184.92,134.86Z"/><path class="cls-6" d="M112.72,135c-.5.45-.06,2.82.89,2.9s2.53-3.58,3.71-2.85,2,1,1.81.63-3.6-1.85-4-2.12S113.24,134.48,112.72,135Z"/><path class="cls-6" d="M125.1,215.27c0,.39,2.12.34,2.45-.31s.16-1.15-.42-1.15S125.1,214.86,125.1,215.27Z"/><path class="cls-5" d="M115.71,211.8c1-.19.53,1.44.78,2s2.65,1.06,3.14,1.44,1.73-.72,2.7-.61-.31-3.34-1.94-3.25-2.91-1.47-3.3-1.65a27.58,27.58,0,0,1-2.8-1.76c-.53-.43-4.66-.79-6.07-.79a4.59,4.59,0,0,0-3.17,1.89c-.22.48,2.24.8,2.93.44s4,.4,4.64,1.19A3.68,3.68,0,0,0,115.71,211.8Z"/><path class="cls-6" d="M111.29,215.27c0,.39,2.13.14,2.64.16s.5-.34,0-.77S111.29,214.86,111.29,215.27Z"/><path class="cls-6" d="M112.79,204.32c-.56-.23-1,.63-1,1.05a.7.7,0,0,0,.66.75C112.85,206.12,113.35,204.55,112.79,204.32Z"/><path class="cls-6" d="M117.27,204.66a2.16,2.16,0,0,0-1.37-.75c-.29,0-.48.7-.43,1.56S117.44,205.06,117.27,204.66Z"/><path class="cls-6" d="M120.47,209.6c.87-.4,1-1.44.47-1.4s-1.46-1.47-2-1.7-1,.94-1,1.43.32.83.7.75S119.6,210,120.47,209.6Z"/><path class="cls-5" d="M125.76,108.05c-.13-.13-.74.29-.47.57C125.41,108.8,126,108.37,125.76,108.05Z"/><path class="cls-7" d="M142,156.39c-.12-.18-.74.29-.52.57S142.25,156.68,142,156.39Z"/><polygon class="cls-8" points="223.18 14.05 220.43 30.78 203.69 33.54 220.43 36.27 223.18 53.01 225.92 36.27 242.64 33.54 225.92 30.78 223.18 14.05"/><polygon class="cls-8" points="67.07 76.61 64.32 93.34 47.59 96.1 64.32 98.83 67.07 115.57 69.81 98.83 86.53 96.1 69.81 93.34 67.07 76.61"/><polygon class="cls-8" points="276.81 0 275.37 8.7 266.69 10.11 275.37 11.54 276.81 20.23 278.23 11.54 286.92 10.11 278.23 8.7 276.81 0"/><polygon class="cls-8" points="40.7 303.9 37.95 320.64 21.21 323.39 37.95 326.13 40.7 342.86 43.44 326.13 60.16 323.39 43.44 320.64 40.7 303.9"/><polygon class="cls-8" points="96.03 338.25 94.6 346.95 85.92 348.37 94.6 349.8 96.03 358.49 97.45 349.8 106.15 348.37 97.45 346.95 96.03 338.25"/><polygon class="cls-8" points="359.83 92.02 357.07 108.75 340.34 111.51 357.07 114.24 359.83 130.98 362.56 114.24 379.3 111.51 362.56 108.75 359.83 92.02"/><polygon class="cls-8" points="361.61 340.02 360.17 348.71 351.5 350.13 360.17 351.58 361.61 360.25 363.04 351.58 371.72 350.13 363.04 348.71 361.61 340.02"/><polygon class="cls-8" points="38.01 164.09 36.57 172.78 27.88 174.21 36.57 175.63 38.01 184.33 39.43 175.63 48.11 174.21 39.43 172.78 38.01 164.09"/><path class="cls-4" d="M539.49,367.82H518.37a153.56,153.56,0,0,0-6.13-21.63L529.89,336a8.92,8.92,0,0,0,3.25-12.13l-17.7-30.65a8.89,8.89,0,0,0-12.1-3.25L485,300.58a143.37,143.37,0,0,0-16.08-15.67l10.21-17.69a8.84,8.84,0,0,0-3.25-12.1l-30.64-17.73a8.89,8.89,0,0,0-12.11,3.27L422.55,259a142.53,142.53,0,0,0-21.79-5.54V233a8.86,8.86,0,0,0-8.86-8.86H356.52a8.88,8.88,0,0,0-8.91,8.86v21.14a147.59,147.59,0,0,0-21.59,6.1L315.83,242.6a8.88,8.88,0,0,0-12.15-3.23L273,257.1a8.84,8.84,0,0,0-3.22,12.06l10.6,18.39a143.77,143.77,0,0,0-15.66,16l-17.67-10.21A8.89,8.89,0,0,0,235,296.63L217.21,327.3a8.84,8.84,0,0,0,3.26,12.08L238.79,350a140.75,140.75,0,0,0-5.49,21.75H212.87A8.88,8.88,0,0,0,204,380.6V416a8.86,8.86,0,0,0,8.91,8.83H234a143.42,143.42,0,0,0,6.08,21.67L222.44,456.7a8.88,8.88,0,0,0-3.26,12.08l17.7,30.68A8.9,8.9,0,0,0,249,502.71l18.37-10.59a143.16,143.16,0,0,0,16.06,15.67L273.21,525.5a8.85,8.85,0,0,0,3.23,12.08l30.7,17.69a8.82,8.82,0,0,0,12.07-3.21l10.61-18.34a142.27,142.27,0,0,0,21.76,5.47v20.49a8.85,8.85,0,0,0,8.85,8.83l35.44,0a8.87,8.87,0,0,0,8.85-8.85V538.51a149.59,149.59,0,0,0,21.62-6.1l10.2,17.67a8.85,8.85,0,0,0,12.09,3.23L479.3,535.6a8.86,8.86,0,0,0,3.22-12.11l-10.6-18.34a140,140,0,0,0,15.69-16.06l17.7,10.23a8.87,8.87,0,0,0,12.09-3.25l17.72-30.69a8.9,8.9,0,0,0-3.22-12.09l-18.36-10.6A144.24,144.24,0,0,0,519.06,421h20.43a8.87,8.87,0,0,0,8.84-8.88V376.68A8.82,8.82,0,0,0,539.49,367.82ZM376.17,488.21A91.87,91.87,0,1,1,468,396.35,91.87,91.87,0,0,1,376.17,488.21Z"/><path class="cls-5" d="M373.09,488.12a91.84,91.84,0,0,1,0-183.57V224.17H356.52a8.88,8.88,0,0,0-8.91,8.86v21.14a147.59,147.59,0,0,0-21.59,6.1L315.83,242.6a8.88,8.88,0,0,0-12.15-3.23L273,257.1a8.84,8.84,0,0,0-3.22,12.06l10.6,18.39a143.77,143.77,0,0,0-15.66,16l-17.67-10.21A8.89,8.89,0,0,0,235,296.63L217.21,327.3a8.84,8.84,0,0,0,3.26,12.08L238.79,350a140.75,140.75,0,0,0-5.49,21.75H212.87A8.88,8.88,0,0,0,204,380.6V416a8.86,8.86,0,0,0,8.91,8.83H234a143.42,143.42,0,0,0,6.08,21.67L222.44,456.7a8.88,8.88,0,0,0-3.26,12.08l17.7,30.68A8.9,8.9,0,0,0,249,502.71l18.37-10.59a143.16,143.16,0,0,0,16.06,15.67L273.21,525.5a8.85,8.85,0,0,0,3.23,12.08l30.7,17.69a8.82,8.82,0,0,0,12.07-3.21l10.61-18.34a142.27,142.27,0,0,0,21.76,5.47v20.49a8.85,8.85,0,0,0,8.85,8.83h12.66Z"/><path class="cls-4" d="M376.17,284.48A111.87,111.87,0,1,0,488.06,396.35,111.86,111.86,0,0,0,376.17,284.48Zm0,203.73A91.87,91.87,0,1,1,468,396.35,91.87,91.87,0,0,1,376.17,488.21Z"/><path class="cls-5" d="M376.17,284.48c-1,0-2.05,0-3.08.06v20c1,0,2-.08,3.08-.08a91.87,91.87,0,0,1,0,183.74c-1,0-2.05,0-3.08-.09v20c1,0,2,.07,3.08.07a111.87,111.87,0,1,0,0-223.74Z"/><path class="cls-9" d="M568.38,589.58s0,0-.06.07a35.62,35.62,0,0,1-50.31-.11l-108.5-109a35.59,35.59,0,0,1,.07-50.25.08.08,0,0,0,.05-.08,35.61,35.61,0,0,1,50.33.12l108.48,109a35.62,35.62,0,0,1-.06,50.26Z"/><path class="cls-10" d="M552.91,588.9a13.8,13.8,0,0,1-19.45-.07L425,479.83a13.77,13.77,0,0,1,19.52-19.43L553,569.39a13.81,13.81,0,0,1,0,19.46Z"/><path class="cls-11" d="M197.92,218.17v0a138.15,138.15,0,0,1,98.58-40.77c76.66.13,138.93,62.61,138.79,139.27a139.05,139.05,0,1,1-237.37-98.47Z"/><path class="cls-12" d="M223.09,243.3A103.42,103.42,0,1,0,369.4,389.5h0A103.42,103.42,0,1,0,223.09,243.3Z"/><path class="cls-1" d="M369.5,243.42a103.44,103.44,0,0,0-95.92-28,103.48,103.48,0,0,0,65.11,195.33A103.53,103.53,0,0,0,369.4,389.5h0a103.23,103.23,0,0,0,.1-146.08Z"/><path class="cls-11" d="M423.57,444.84a17.78,17.78,0,0,1-25.15-.06l-22.15-22.86a17.81,17.81,0,0,1,0-25.14s0,0,0,0a17.81,17.81,0,0,1,25.17.09l22.15,22.86a17.77,17.77,0,0,1,0,25.12Z"/><path class="cls-13" d="M296.47,185.23c72.34.14,131.09,59.09,131,131.41a131.29,131.29,0,0,1-131.15,131H296l0-17.51h.22a113.68,113.68,0,0,0,.19-227.36v-17.5Z"/><path class="cls-4" d="M284.32,396.35a91.58,91.58,0,0,1,115-88.84,102.62,102.62,0,0,0-29.8-64.09,105.4,105.4,0,0,0-20.13-15.66,8.9,8.9,0,0,0-1.76,5.27v21.14a147.59,147.59,0,0,0-21.59,6.1L315.83,242.6a8.88,8.88,0,0,0-12.15-3.23L273,257.1a8.84,8.84,0,0,0-3.22,12.06l10.6,18.39a143.77,143.77,0,0,0-15.66,16l-17.67-10.21A8.89,8.89,0,0,0,235,296.63L217.21,327.3a8.84,8.84,0,0,0,3.26,12.08L238.79,350a140.75,140.75,0,0,0-5.49,21.75H212.87a8.77,8.77,0,0,0-3.52.74,103.4,103.4,0,0,0,78,47A91.45,91.45,0,0,1,284.32,396.35Z"/><path class="cls-5" d="M233.32,371.71l0,0H212.87a8.77,8.77,0,0,0-3.52.74c.86,1.34,1.79,2.64,2.72,4,.63.86,1.29,1.71,2,2.59,1.48,2,3.06,3.89,4.71,5.74.72.82,1.44,1.63,2.17,2.42,1.54,1.61,3.12,3.18,4.73,4.69,1,.93,2,1.86,3,2.76,1.19,1,2.39,2,3.65,3,.93.75,1.9,1.47,2.88,2.18,1.89,1.41,3.85,2.75,5.84,4,1,.61,1.92,1.2,2.89,1.76,2.06,1.23,4.17,2.36,6.31,3.41,1.08.55,2.15,1.09,3.25,1.59,1.45.65,2.89,1.28,4.39,1.87s2.75,1,4.15,1.53c2,.73,4.11,1.38,6.24,2,1.08.3,2.18.57,3.3.84,2.45.61,4.92,1.13,7.43,1.53,1.17.21,2.31.39,3.47.55,1.63.22,3.25.43,4.91.56a94.52,94.52,0,0,1-2.18-10.84A103.79,103.79,0,0,1,233.32,371.71Z"/><path class="cls-11" d="M490.79,161h-7.07a49.92,49.92,0,0,0-2.05-7.23l5.91-3.41a3,3,0,0,0,1.09-4.06l-5.92-10.26a3,3,0,0,0-4-1.08l-6.16,3.54a49.24,49.24,0,0,0-5.37-5.24l3.4-5.91a3,3,0,0,0-1.08-4.07l-10.26-5.92a3,3,0,0,0-4,1.09l-3.53,6.14a45.91,45.91,0,0,0-7.3-1.85V116a3,3,0,0,0-2.95-3H429.57a3,3,0,0,0-3,3V123a47.33,47.33,0,0,0-7.22,2l-3.42-5.9a3,3,0,0,0-4.07-1.1L401.64,124a3,3,0,0,0-1.08,4l3.54,6.14a47.49,47.49,0,0,0-5.23,5.38l-5.93-3.41a2.91,2.91,0,0,0-4,1.09L383,147.49a2.94,2.94,0,0,0,1.08,4l6.12,3.55a49.24,49.24,0,0,0-1.82,7.27h-6.84a3,3,0,0,0-3,3v11.86a3,3,0,0,0,3,3h7.08a50.45,50.45,0,0,0,2,7.25l-5.91,3.42a3,3,0,0,0-1.07,4l5.91,10.25a3,3,0,0,0,4.05,1.09l6.14-3.55a45.86,45.86,0,0,0,5.38,5.24l-3.41,5.95a2.92,2.92,0,0,0,1.08,4l10.27,5.94a3,3,0,0,0,4-1.08l3.54-6.14a43.56,43.56,0,0,0,7.28,1.82v6.87a3,3,0,0,0,3,3h11.86a2.94,2.94,0,0,0,2.95-3v-7.09a47.23,47.23,0,0,0,7.25-2l3.41,5.9a2.93,2.93,0,0,0,4,1.11l10.28-5.94a3,3,0,0,0,1.08-4L468.18,207a45.24,45.24,0,0,0,5.25-5.38l5.93,3.44a3,3,0,0,0,4-1.08l5.93-10.28a3,3,0,0,0-1.08-4.05l-6.14-3.54a49.29,49.29,0,0,0,1.84-7.27h6.84a3,3,0,0,0,2.95-3V164A3,3,0,0,0,490.79,161Zm-54.64,33.18a23.64,23.64,0,1,1,23.64-23.62A23.63,23.63,0,0,1,436.15,194.22Z"/><path class="cls-13" d="M435.11,201.29a30.72,30.72,0,0,1,0-61.41V113h-5.54a3,3,0,0,0-3,3V123a47.33,47.33,0,0,0-7.22,2l-3.42-5.9a3,3,0,0,0-4.07-1.1L401.64,124a3,3,0,0,0-1.08,4l3.54,6.14a47.49,47.49,0,0,0-5.23,5.38l-5.93-3.41a2.91,2.91,0,0,0-4,1.09L383,147.49a2.94,2.94,0,0,0,1.08,4l6.12,3.55a49.24,49.24,0,0,0-1.82,7.27h-6.84a3,3,0,0,0-3,3v11.86a3,3,0,0,0,3,3h7.08a50.45,50.45,0,0,0,2,7.25l-5.91,3.42a3,3,0,0,0-1.07,4l5.91,10.25a3,3,0,0,0,4.05,1.09l6.14-3.55a45.86,45.86,0,0,0,5.38,5.24l-3.41,5.95a2.92,2.92,0,0,0,1.08,4l10.27,5.94a3,3,0,0,0,4-1.08l3.54-6.14a43.56,43.56,0,0,0,7.28,1.82v6.87a3,3,0,0,0,3,3h4.23Z"/><path class="cls-11" d="M436.15,128.72A41.88,41.88,0,1,0,478,170.6,41.86,41.86,0,0,0,436.15,128.72Zm0,76.25a34.39,34.39,0,1,1,34.38-34.37A34.39,34.39,0,0,1,436.15,205Z"/><path class="cls-13" d="M436.15,128.72c-.39,0-.78,0-1.15,0v7.48c.37,0,.76,0,1.15,0a34.39,34.39,0,0,1,0,68.78L435,205v7.5l1.15,0a41.88,41.88,0,1,0,0-83.75Z"/><path class="cls-4" d="M473.26,173.44c0-.36.05-.72.07-1.1,0-.59,0-1.16,0-1.74s0-1.18,0-1.76c0-.37-.05-.73-.07-1.09,0-.2,0-.39,0-.59a37.23,37.23,0,0,0-74-1.6.36.36,0,0,1,0,.14c-.06.47-.11,1-.16,1.44,0,.22,0,.45,0,.68s-.06.67-.08,1c0,.58,0,1.18,0,1.79s0,1.17,0,1.74c0,.33,0,.67.08,1s0,.45,0,.67c.05.48.1,1,.16,1.43a.53.53,0,0,1,0,.16,37.22,37.22,0,0,0,74-1.61C473.24,173.83,473.24,173.62,473.26,173.44Z"/><path class="cls-5" d="M436.15,133.37a37.28,37.28,0,0,0-36.88,32.19.36.36,0,0,1,0,.14c-.06.47-.11,1-.16,1.44,0,.22,0,.45,0,.68s-.06.67-.08,1c0,.58,0,1.18,0,1.79s0,1.17,0,1.74c0,.33,0,.67.08,1s0,.45,0,.67c.05.48.1,1,.16,1.43a.53.53,0,0,1,0,.16,37.28,37.28,0,0,0,36.88,32.21"/><path class="cls-7" d="M466.49,185.8l-.38.74c-.13.22-.25.45-.38.68l-.41.72-.42.68c-.16.23-.29.47-.45.7s-.29.43-.44.63-.32.45-.49.68a7.36,7.36,0,0,1-.47.63c-.17.23-.33.43-.52.66s-.33.38-.49.58a6.83,6.83,0,0,1-.54.63,7.28,7.28,0,0,1-.53.57c-.18.23-.38.41-.57.61l-.53.54c-.21.21-.42.39-.63.59l-.56.52-.64.54a5.57,5.57,0,0,1-.59.5c-.21.18-.44.34-.65.51s-.41.3-.61.46l-.7.5c-.21.15-.4.29-.62.42s-.49.32-.74.48-.41.25-.63.38-.5.3-.76.44-.43.24-.64.36-.52.29-.79.4l-.66.34c-.27.11-.55.25-.83.36s-.43.18-.66.3l-.86.34a5.84,5.84,0,0,0-.66.24.3.3,0,0,1-.16.05c4.11-4.09,7.36-10.35,9.21-17.83H467c-.06.12-.11.23-.16.35S466.61,185.55,466.49,185.8Z"/><path class="cls-7" d="M448.3,138.9l.86.32c.23.12.44.2.66.29s.56.25.83.39.44.21.66.32l.79.4c.21.12.43.23.64.37s.51.29.76.42.43.27.63.38.5.32.74.48.41.29.62.43.48.32.7.5.41.31.61.45.44.36.65.52.41.34.59.49.43.36.64.57l.56.5.63.58c.17.19.36.36.53.55s.39.4.57.61.35.38.53.56l.54.63c.16.21.34.41.49.59s.35.45.52.67.32.42.47.61.34.46.49.69l.44.63.45.72c.14.2.28.43.42.66l.41.72c.13.22.25.45.38.68s.25.49.38.74.23.48.35.7l.16.34H456.69c-1.85-7.48-5.11-13.74-9.21-17.82l.16,0Z"/><path class="cls-7" d="M455.09,170.6a59.3,59.3,0,0,1-1,10.88H437.78V159.69h16.31A59.31,59.31,0,0,1,455.09,170.6Z"/><path class="cls-7" d="M453.37,184.75c-2.79,10.83-8.67,18.59-15.59,19.66V184.75Z"/><path class="cls-7" d="M437.78,156.41V136.78c6.92,1.07,12.78,8.81,15.56,19.63Z"/><path class="cls-7" d="M470.06,172.13c0,.25,0,.52-.05.77s0,.43,0,.66c0,.38-.08.76-.13,1.13v0a34.77,34.77,0,0,1-1.57,6.75H457.39a61.67,61.67,0,0,0,0-21.79h10.88a35,35,0,0,1,1.56,6.72.28.28,0,0,1,0,.1c.05.36.09.74.13,1.1s0,.46,0,.66.05.51.05.76c0,.53,0,1.05,0,1.57S470.09,171.61,470.06,172.13Z"/><path class="cls-14" d="M402.47,174.84a1.6,1.6,0,0,0,0-.23c0-.34-.07-.67-.1-1s0-.48-.06-.73a5.68,5.68,0,0,1,0-.72c0-.52,0-1,0-1.53s0-1,0-1.57a5.52,5.52,0,0,1,0-.71c0-.25,0-.48.06-.73s.06-.7.11-1c0-.07,0-.16,0-.22a34,34,0,0,1,1.55-6.64H414.9a61.67,61.67,0,0,0,0,21.79H404A34,34,0,0,1,402.47,174.84Z"/><path class="cls-14" d="M417.19,170.6a58.41,58.41,0,0,1,1-10.91h16.31v21.79H418.2A59.29,59.29,0,0,1,417.19,170.6Z"/><path class="cls-14" d="M434.52,136.78v19.63H418.94C421.72,145.59,427.6,137.85,434.52,136.78Z"/><path class="cls-14" d="M434.52,184.75v19.66c-6.92-1.07-12.8-8.83-15.58-19.66Z"/><path class="cls-14" d="M424.81,138.59c-4.11,4.08-7.36,10.34-9.21,17.82H405.32A34.06,34.06,0,0,1,424.81,138.59Z"/><path class="cls-14" d="M405.3,184.75h10.3c1.85,7.48,5.1,13.74,9.21,17.83A34.17,34.17,0,0,1,405.3,184.75Z"/><path class="cls-10" d="M475,229.93h3.37a2.1,2.1,0,0,0,1.87-1.34l.64-1.53a2.12,2.12,0,0,0-.36-2.26l-2.4-2.39a1.43,1.43,0,0,1,0-2l3.69-3.68a1.4,1.4,0,0,1,2,0l2.39,2.37a2.08,2.08,0,0,0,2.27.38l1.51-.63a2.12,2.12,0,0,0,1.36-1.88V213.6a1.43,1.43,0,0,1,1.41-1.42H498a1.44,1.44,0,0,1,1.41,1.42V217a2.11,2.11,0,0,0,1.34,1.88l1.54.63a2.09,2.09,0,0,0,2.27-.38l2.38-2.37a1.4,1.4,0,0,1,2,0l3.68,3.68a1.43,1.43,0,0,1,0,2l-2.39,2.39a2.14,2.14,0,0,0-.37,2.26l.64,1.53a2.09,2.09,0,0,0,1.86,1.34h3.37a1.43,1.43,0,0,1,1.43,1.42v5.2a1.43,1.43,0,0,1-1.43,1.42h-3.37a2.08,2.08,0,0,0-1.86,1.35l-.64,1.54a2.15,2.15,0,0,0,.37,2.26l2.39,2.4a1.43,1.43,0,0,1,0,2L509,251.2a1.43,1.43,0,0,1-2,0l-2.38-2.39a2.14,2.14,0,0,0-2.27-.36l-1.54.63a2.1,2.1,0,0,0-1.34,1.85v3.37a1.45,1.45,0,0,1-1.41,1.45h-5.22a1.44,1.44,0,0,1-1.41-1.45v-3.37a2.11,2.11,0,0,0-1.36-1.85l-1.51-.63a2.13,2.13,0,0,0-2.27.36l-2.39,2.39a1.43,1.43,0,0,1-2,0l-3.69-3.67a1.43,1.43,0,0,1,0-2l2.4-2.4a2.13,2.13,0,0,0,.36-2.26l-.64-1.54a2.1,2.1,0,0,0-1.87-1.35H475a1.43,1.43,0,0,1-1.42-1.42v-5.2A1.43,1.43,0,0,1,475,229.93Zm20.38,10.89a6.87,6.87,0,1,0-6.87-6.87A6.85,6.85,0,0,0,495.4,240.82Z"/><path class="cls-9" d="M495.31,240.82h.09a6.87,6.87,0,0,0,0-13.74h-.09v-14.9H498a1.44,1.44,0,0,1,1.41,1.42V217a2.11,2.11,0,0,0,1.34,1.88l1.54.63a2.09,2.09,0,0,0,2.27-.38l2.38-2.37a1.4,1.4,0,0,1,2,0l3.68,3.68a1.43,1.43,0,0,1,0,2l-2.39,2.39a2.14,2.14,0,0,0-.37,2.26l.64,1.53a2.09,2.09,0,0,0,1.86,1.34h3.37a1.43,1.43,0,0,1,1.43,1.42v5.2a1.43,1.43,0,0,1-1.43,1.42h-3.37a2.08,2.08,0,0,0-1.86,1.35l-.64,1.54a2.15,2.15,0,0,0,.37,2.26l2.39,2.4a1.43,1.43,0,0,1,0,2L509,251.2a1.43,1.43,0,0,1-2,0l-2.38-2.39a2.14,2.14,0,0,0-2.27-.36l-1.54.63a2.1,2.1,0,0,0-1.34,1.85v3.37a1.45,1.45,0,0,1-1.41,1.45h-2.69Z"/><path class="cls-5" d="M99.32,448.55a29.68,29.68,0,0,0,6.3,10.84l-21.5,30.09a65.81,65.81,0,0,1-21.69-36.84Z"/><path class="cls-11" d="M121.32,410.4A29.55,29.55,0,0,0,98,436.57l-36.84,4.07c0-.4-.07-.84-.07-1.24a66.24,66.24,0,0,1,60.22-65.93Z"/><path class="cls-15" d="M149.17,419.55a29.45,29.45,0,0,0-15.83-9.15V373.47A66.14,66.14,0,0,1,181,400.75Z"/><path class="cls-10" d="M115.37,466.43a28.8,28.8,0,0,0,12,2.56,29.27,29.27,0,0,0,27.92-39.08l31.92-18.76a65.52,65.52,0,0,1,6.4,28.25A66.15,66.15,0,0,1,93.9,496.5Z"/><path class="cls-13" d="M153.91,557.35c0,.13-.19.27-.43.27H128.93c-.24,0-.44-.14-.44-.27V537.49c0-.13.2-.27.44-.27h24.55c.24,0,.43.14.43.27Z"/><path class="cls-5" d="M188.58,557.35c0,.13-.2.27-.42.27H163.59c-.24,0-.43-.14-.43-.27V515.49c0-.13.19-.27.43-.27h24.57c.22,0,.42.14.42.27Z"/><path class="cls-10" d="M223.23,557.35c0,.13-.19.27-.43.27H198.25c-.24,0-.44-.14-.44-.27V492.5c0-.13.2-.25.44-.25H222.8c.24,0,.43.12.43.25Z"/><path class="cls-5" d="M565.69,175.86h-4.27a2.65,2.65,0,0,1-2.36-1.7l-.8-1.94a2.68,2.68,0,0,1,.46-2.87l3-3a1.84,1.84,0,0,0,0-2.56l-4.66-4.67a1.8,1.8,0,0,0-2.54,0l-3,3a2.71,2.71,0,0,1-2.89.47l-1.93-.81a2.63,2.63,0,0,1-1.68-2.37v-4.25a1.83,1.83,0,0,0-1.82-1.81h-6.59a1.81,1.81,0,0,0-1.79,1.81v4.25a2.66,2.66,0,0,1-1.71,2.37l-1.93.81a2.69,2.69,0,0,1-2.88-.47l-3-3a1.8,1.8,0,0,0-2.54,0l-4.67,4.67a1.84,1.84,0,0,0,0,2.56l3,3a2.64,2.64,0,0,1,.45,2.87l-.78,1.94a2.7,2.7,0,0,1-2.37,1.7h-4.27a1.81,1.81,0,0,0-1.8,1.8v6.6a1.8,1.8,0,0,0,1.8,1.79h4.27a2.68,2.68,0,0,1,2.37,1.71l.78,1.92a2.63,2.63,0,0,1-.45,2.87l-3,3a1.82,1.82,0,0,0,0,2.54l4.67,4.66a1.8,1.8,0,0,0,2.54,0l3-3a2.64,2.64,0,0,1,2.88-.47l1.93.78a2.68,2.68,0,0,1,1.71,2.37v4.27a1.78,1.78,0,0,0,1.79,1.79h6.59a1.81,1.81,0,0,0,1.82-1.79v-4.27a2.65,2.65,0,0,1,1.68-2.37l1.93-.78a2.65,2.65,0,0,1,2.89.47l3,3a1.8,1.8,0,0,0,2.54,0l4.66-4.66a1.82,1.82,0,0,0,0-2.54l-3-3a2.67,2.67,0,0,1-.46-2.87l.8-1.92a2.63,2.63,0,0,1,2.36-1.71h4.27a1.78,1.78,0,0,0,1.78-1.79v-6.6A1.79,1.79,0,0,0,565.69,175.86Zm-25.77,13.8a8.7,8.7,0,1,1,8.69-8.7A8.7,8.7,0,0,1,539.92,189.66Z"/></g></svg>