<svg xmlns="http://www.w3.org/2000/svg" viewBox="0 0 600 600"><defs><style>.cls-1{fill:#e5edf7;}.cls-2{fill:#004ab3;}.cls-3{fill:#dce4e7;}.cls-4,.cls-5,.cls-6,.cls-7{fill:none;stroke-linejoin:round;}.cls-4{stroke:#596273;}.cls-4,.cls-5,.cls-7{stroke-width:7.29px;}.cls-5,.cls-6{stroke:#e51818;}.cls-5,.cls-6,.cls-7{stroke-linecap:round;}.cls-6{stroke-width:3.65px;}.cls-7{stroke:#004ab3;}.cls-8{fill:#6692d1;}.cls-9{fill:#fff;}.cls-10{fill:#30363d;}.cls-11{fill:#474f59;}.cls-12{fill:#596273;}</style></defs><g id="_03" data-name="03"><path class="cls-1" d="M598.78,528.89a2.68,2.68,0,0,1-2.67,2.68H246.28a2.67,2.67,0,0,1-2.67-2.68V30.64A2.67,2.67,0,0,1,246.28,28H596.11a2.68,2.68,0,0,1,2.67,2.68Z"/><path class="cls-2" d="M598.78,56.41V30.64A2.68,2.68,0,0,0,596.11,28H246.28a2.67,2.67,0,0,0-2.67,2.68V56.41Z"/><path class="cls-3" d="M290.9,41.94a4.56,4.56,0,1,1-4.54-4.56A4.56,4.56,0,0,1,290.9,41.94Z"/><path class="cls-3" d="M276,41.94a4.55,4.55,0,1,1-4.56-4.56A4.56,4.56,0,0,1,276,41.94Z"/><path class="cls-3" d="M261.17,41.94a4.56,4.56,0,1,1-4.56-4.56A4.56,4.56,0,0,1,261.17,41.94Z"/><line class="cls-4" x1="273.32" y1="98.92" x2="336.85" y2="99.47"/><line class="cls-4" x1="304.09" y1="110.83" x2="392.45" y2="111.59"/><line class="cls-4" x1="303.99" y1="122.46" x2="383.61" y2="123.15"/><line class="cls-4" x1="303.89" y1="134.08" x2="367.41" y2="134.63"/><line class="cls-4" x1="272.18" y1="230.44" x2="335.71" y2="230.99"/><line class="cls-4" x1="302.95" y1="242.34" x2="473.17" y2="243.81"/><line class="cls-4" x1="302.85" y1="253.97" x2="446.42" y2="255.22"/><line class="cls-4" x1="318.85" y1="265.74" x2="382.37" y2="266.29"/><line class="cls-4" x1="272.73" y1="167.36" x2="336.25" y2="167.91"/><line class="cls-4" x1="303.49" y1="179.26" x2="564.51" y2="181.52"/><line class="cls-4" x1="303.39" y1="190.89" x2="555.68" y2="193.07"/><line class="cls-4" x1="303.29" y1="202.52" x2="366.82" y2="203.07"/><rect class="cls-5" x="32.89" y="227.1" width="31.89" height="45.62"/><line class="cls-6" x1="48.93" y1="227.85" x2="48.93" y2="271.97"/><line class="cls-6" x1="64.97" y1="242.01" x2="32.88" y2="242.01"/><line class="cls-6" x1="64.97" y1="257.29" x2="32.88" y2="257.29"/><line class="cls-5" x1="15.33" y1="248.96" x2="25.29" y2="248.96"/><line class="cls-5" x1="3.65" y1="211.2" x2="3.65" y2="217.04"/><line class="cls-5" x1="36.98" y1="211.2" x2="36.98" y2="217.04"/><line class="cls-5" x1="20.31" y1="247.99" x2="20.31" y2="212.94"/><line class="cls-5" x1="3.65" y1="211.2" x2="36.98" y2="211.2"/><polyline class="cls-7" points="144.65 568.39 154.07 539.61 163.5 510.83 172.91 539.61 182.32 568.39"/><line class="cls-7" x1="140.67" y1="568.39" x2="149.66" y2="568.39"/><line class="cls-7" x1="177.31" y1="568.39" x2="186.31" y2="568.39"/><line class="cls-7" x1="151.43" y1="550.63" x2="175.52" y2="550.63"/><path class="cls-7" d="M200,523.25a55.29,55.29,0,0,1-6.88,1.9c-3,.65-5.11,1.14-6.26,1.43a8.79,8.79,0,0,0-3.32,1.86,4.65,4.65,0,0,0-1.56,3.77,5.66,5.66,0,0,0,1.85,4.29,6.66,6.66,0,0,0,4.85,1.76,12.22,12.22,0,0,0,5.9-1.45,9.41,9.41,0,0,0,3.95-3.7q1.47-2.54,1.47-8.27Z"/><path class="cls-7" d="M183.33,517.26a7.82,7.82,0,0,1,7.21-5.06h1.86a8.07,8.07,0,0,1,7.83,8.28V538"/><polygon class="cls-8" points="146.43 267.7 112.79 230.15 79.14 192.6 146.43 192.6 213.75 192.6 180.09 230.15 146.43 267.7"/><polygon class="cls-9" points="146.43 267.7 131.59 230.15 116.77 192.6 146.43 192.6 176.11 192.6 161.28 230.15 146.43 267.7"/><polygon class="cls-8" points="79.14 192.79 146.43 192.79 213.75 192.79 195.22 168.91 97.65 168.91 79.14 192.79"/><polygon class="cls-2" points="146.43 168.68 116.77 192.79 146.43 192.79 176.11 192.79 146.43 168.68"/><polygon class="cls-9" points="116.53 192.79 97.71 168.91 97.65 168.91 79.14 192.79 116.53 192.79"/><polygon class="cls-9" points="176.35 192.79 195.17 168.91 195.22 168.91 213.75 192.79 176.35 192.79"/><rect class="cls-10" x="61.92" y="302.62" width="402.57" height="177.42"/><rect class="cls-11" x="61.92" y="298.96" width="402.57" height="177.43"/><rect class="cls-10" x="91.74" y="332.55" width="28.39" height="28.39"/><rect class="cls-10" x="131.06" y="332.55" width="28.39" height="28.39"/><rect class="cls-10" x="170.38" y="332.55" width="28.39" height="28.39"/><rect class="cls-10" x="209.69" y="332.55" width="28.39" height="28.39"/><rect class="cls-10" x="248.99" y="332.55" width="28.39" height="28.39"/><rect class="cls-10" x="288.31" y="332.55" width="28.4" height="28.39"/><rect class="cls-10" x="327.63" y="332.55" width="28.39" height="28.39"/><rect class="cls-10" x="366.96" y="332.55" width="28.38" height="28.39"/><rect class="cls-10" x="406.26" y="332.55" width="28.39" height="28.39"/><rect class="cls-10" x="91.74" y="371.75" width="28.39" height="28.39"/><rect class="cls-10" x="131.06" y="371.75" width="28.39" height="28.39"/><rect class="cls-10" x="170.38" y="371.75" width="28.39" height="28.39"/><rect class="cls-10" x="209.69" y="371.75" width="28.39" height="28.39"/><rect class="cls-10" x="248.99" y="371.75" width="28.39" height="28.39"/><rect class="cls-10" x="288.31" y="371.75" width="28.4" height="28.39"/><rect class="cls-10" x="327.63" y="371.75" width="28.39" height="28.39"/><rect class="cls-10" x="366.96" y="371.75" width="28.38" height="28.39"/><rect class="cls-10" x="406.26" y="371.75" width="28.39" height="28.39"/><rect class="cls-10" x="91.74" y="410.95" width="28.39" height="28.39"/><polygon class="cls-10" points="304.96 410.95 288.31 410.95 131.06 410.95 131.06 439.34 288.31 439.34 304.96 439.34 316.71 439.34 316.71 410.95 304.96 410.95"/><rect class="cls-10" x="327.63" y="410.95" width="28.39" height="28.39"/><rect class="cls-10" x="366.96" y="410.95" width="28.38" height="28.39"/><rect class="cls-10" x="406.26" y="410.95" width="28.39" height="28.39"/><rect class="cls-12" x="91.74" y="328.9" width="28.39" height="28.39"/><rect class="cls-12" x="131.06" y="328.9" width="28.39" height="28.39"/><rect class="cls-12" x="170.38" y="328.9" width="28.39" height="28.39"/><rect class="cls-12" x="209.69" y="328.9" width="28.39" height="28.39"/><rect class="cls-12" x="248.99" y="328.9" width="28.39" height="28.39"/><rect class="cls-12" x="288.31" y="328.9" width="28.4" height="28.39"/><rect class="cls-12" x="327.63" y="328.9" width="28.39" height="28.39"/><rect class="cls-12" x="366.96" y="328.9" width="28.38" height="28.39"/><rect class="cls-12" x="406.26" y="328.9" width="28.39" height="28.39"/><rect class="cls-12" x="91.74" y="368.1" width="28.39" height="28.39"/><rect class="cls-12" x="131.06" y="368.1" width="28.39" height="28.39"/><rect class="cls-12" x="170.38" y="368.1" width="28.39" height="28.39"/><rect class="cls-12" x="209.69" y="368.1" width="28.39" height="28.39"/><rect class="cls-12" x="248.99" y="368.1" width="28.39" height="28.39"/><rect class="cls-12" x="288.31" y="368.1" width="28.4" height="28.39"/><rect class="cls-12" x="327.63" y="368.1" width="28.39" height="28.39"/><rect class="cls-12" x="366.96" y="368.1" width="28.38" height="28.39"/><rect class="cls-12" x="406.26" y="368.1" width="28.39" height="28.39"/><rect class="cls-12" x="91.74" y="407.3" width="28.39" height="28.39"/><polygon class="cls-12" points="304.96 407.3 288.31 407.3 131.06 407.3 131.06 435.69 288.31 435.69 304.96 435.69 316.71 435.69 316.71 407.3 304.96 407.3"/><rect class="cls-12" x="327.63" y="407.3" width="28.39" height="28.39"/><rect class="cls-12" x="366.96" y="407.3" width="28.38" height="28.39"/><rect class="cls-12" x="406.26" y="407.3" width="28.39" height="28.39"/><polyline class="cls-5" points="123.34 124.59 100.33 101.57 123.34 78.55"/><line class="cls-5" x1="141.45" y1="124.59" x2="160.23" y2="78.55"/><polyline class="cls-5" points="175.48 124.59 198.49 101.57 175.48 78.55"/></g></svg>