<svg xmlns="http://www.w3.org/2000/svg" viewBox="0 0 600 600"><defs><style>.cls-1,.cls-13,.cls-14,.cls-17,.cls-18,.cls-22,.cls-23,.cls-24,.cls-25,.cls-5{fill:none;}.cls-1,.cls-17,.cls-18,.cls-24,.cls-25,.cls-5{stroke:#b3b3b3;}.cls-1,.cls-13,.cls-14,.cls-17,.cls-22,.cls-23,.cls-24,.cls-25,.cls-5{stroke-linecap:round;}.cls-1,.cls-13,.cls-14,.cls-17,.cls-22,.cls-23,.cls-24,.cls-5{stroke-linejoin:round;}.cls-1{stroke-width:3.01px;stroke-dasharray:10.55 10.55;}.cls-2{fill:#ea4646;}.cls-3{fill:#e51818;}.cls-4{fill:#336ec2;}.cls-5{stroke-width:2.85px;stroke-dasharray:9.98 9.98;}.cls-6{fill:#1695a4;}.cls-7{fill:#fff;}.cls-8{fill:#d1ecfb;}.cls-9{fill:#d46f41;}.cls-10{fill:#ec8558;}.cls-11{fill:#2c5871;}.cls-12{fill:#a6dae9;}.cls-13,.cls-14{stroke:#15b0bf;}.cls-13{stroke-width:2.26px;}.cls-14{stroke-width:1.26px;}.cls-15,.cls-21{fill:#b3b3b3;}.cls-15{stroke:#fff;stroke-width:1.4px;}.cls-16{fill:#0e303f;}.cls-17{stroke-width:1.72px;}.cls-18{stroke-width:1.47px;}.cls-19{fill:#004ab3;}.cls-20{fill:#2c5066;}.cls-22,.cls-23{stroke:#0e303f;}.cls-22{stroke-width:1.27px;}.cls-23{stroke-width:4.19px;}.cls-24,.cls-25{stroke-width:2.26px;}.cls-26{fill:#ccdbf0;}.cls-27{fill:#e5edf7;}</style></defs><g id="_02" data-name="02"><path class="cls-1" d="M70.57,295.65c22,5,39.42,14.24,48.43,25.1,33.74,40.68,9.29,81.17-14,57.17s14.34-59.27,68.88-56.42C204,323.08,244.81,346,276.94,376.73"/><path class="cls-1" d="M498.11,386.9c-22.47,1.33-41.83-2.71-53.51-10.64-43.71-29.68-31.5-75.38-2.42-58.81s2.7,60.92-50.47,73.36c-29.42,6.87-75-3.85-114.38-24.37"/><path class="cls-2" d="M271.91,280.13a88.11,88.11,0,0,0-88.1,88.1v7.86l-26.92,57h28.17a85.73,85.73,0,0,0,3,12.22,8.43,8.43,0,0,0,.7,11.78,8.45,8.45,0,0,0,2.94,12.61v2.93a33.87,33.87,0,0,0,33.87,33.86H360V368.23A88.1,88.1,0,0,0,271.91,280.13Z"/><path class="cls-3" d="M251.58,429.14a23.86,23.86,0,1,1-23.85-23.86A23.85,23.85,0,0,1,251.58,429.14Z"/><path class="cls-4" d="M214.1,377.25a5.05,5.05,0,1,1-5-5A5.06,5.06,0,0,1,214.1,377.25Z"/><path class="cls-5" d="M361.82,331.51C389,327,401,313.42,405.53,298.35s6-34.66,19.6-54.26S456.78,224.5,462.81,220"/><path class="cls-5" d="M193,292.32s-14.9-16.07-21.1-34.67c-6-18.08-21.11-36.17-33.16-46.71"/><path class="cls-5" d="M280.09,202.67s20.45,35.22,3.64,64.64c-12.05,21.11-12.78,33.09-6.18,49.38"/><path class="cls-5" d="M381.43,199.55s-.94,32.64-3.42,50.88c-4.6,33.82-32.62,53.58-46.8,64"/><path class="cls-6" d="M551.57,278a4,4,0,0,1-4,4h-82a4,4,0,0,1-4-4V172.25a4,4,0,0,1,4-4.05h82a4,4,0,0,1,4,4.05Z"/><path class="cls-4" d="M551.57,275a4,4,0,0,1-4,4.05h-82a4,4,0,0,1-4-4.05V169.2a4,4,0,0,1,4-4h82a4.05,4.05,0,0,1,4,4Z"/><rect class="cls-7" x="468.73" y="172.44" width="75.56" height="99.31"/><rect class="cls-8" x="468.73" y="268.51" width="75.56" height="3.24"/><path class="cls-9" d="M524,177.71v-4.05a2.43,2.43,0,0,0-2.42-2.44H491.4a2.44,2.44,0,0,0-2.44,2.44v4.05Z"/><path class="cls-10" d="M524,176v-4a2.42,2.42,0,0,0-2.42-2.43H491.4A2.43,2.43,0,0,0,489,171.9v4Z"/><path class="cls-10" d="M512.17,169.2a5.67,5.67,0,1,1-5.66-5.67A5.67,5.67,0,0,1,512.17,169.2Z"/><path class="cls-11" d="M508.93,169.2a2.43,2.43,0,1,1-2.42-2.43A2.44,2.44,0,0,1,508.93,169.2Z"/><rect class="cls-12" x="487.02" y="198.99" width="47.1" height="2.48"/><rect class="cls-12" x="487.02" y="209.16" width="47.1" height="2.47"/><rect class="cls-12" x="487.02" y="219.33" width="47.1" height="2.48"/><rect class="cls-12" x="487.02" y="229.48" width="47.1" height="2.48"/><path class="cls-13" d="M482.38,197l-4.1,5-1.86-2"/><path class="cls-13" d="M482.38,206.78l-4.1,5-1.86-1.95"/><path class="cls-13" d="M482.38,216.55l-4.1,5-1.86-2"/><path class="cls-14" d="M508,249.14c2.51,4.45,1,11.39,0,7.62s1.48-8,5.42-8c1.75,0,3.5,1.62,4.59,3.33,1.36,2.14,1.7,4.43-.29,3.86-3.59-1,3.93-5.82,6.81-5.48s.34,5.82,2.49,3.08-.34-3.08,5-2.05"/><path class="cls-15" d="M69.32,330.31a11.2,11.2,0,0,1,2.9-2.07,10.1,10.1,0,0,1,1.9-.67,10.39,10.39,0,0,1,2.24-.24,8.37,8.37,0,0,1,2.81.46,6.94,6.94,0,0,1,2.33,1.28,6.07,6.07,0,0,1,2.17,4.76,7,7,0,0,1-.5,2.8,8,8,0,0,1-1.27,2.06,10.33,10.33,0,0,1-1.68,1.57c-.6.45-1.16.87-1.67,1.27a8.84,8.84,0,0,0-1.34,1.19,2.11,2.11,0,0,0-.58,1.33l-.26,3.51H75l-.11-3.67v-.11a2.42,2.42,0,0,1,.51-1.54A8.14,8.14,0,0,1,76.66,341c.51-.42,1-.84,1.64-1.27A10.39,10.39,0,0,0,80,338.25a7.68,7.68,0,0,0,1.28-1.86,5.44,5.44,0,0,0,.51-2.48,4.63,4.63,0,0,0-.45-2.07,4.82,4.82,0,0,0-1.21-1.55,5.54,5.54,0,0,0-1.78-1,6.75,6.75,0,0,0-2.11-.33,7,7,0,0,0-2.45.38,8.32,8.32,0,0,0-1.74.82,8.11,8.11,0,0,0-1.11.84c-.28.25-.46.38-.57.38a.5.5,0,0,1-.46-.26Zm4.32,26a2.08,2.08,0,0,1,.57-1.4,2.27,2.27,0,0,1,.63-.43,2,2,0,0,1,.78-.15,2,2,0,0,1,.77.15,1.86,1.86,0,0,1,.62.43,2.19,2.19,0,0,1,.45.63,2.07,2.07,0,0,1,.15.77,2,2,0,0,1-.15.79,2.15,2.15,0,0,1-.45.62,1.84,1.84,0,0,1-.62.42,2,2,0,0,1-.77.15,1.93,1.93,0,0,1-1.41-.57A2,2,0,0,1,73.64,356.33Z"/><path class="cls-11" d="M369.87,202.84a1.26,1.26,0,1,0,0,2.52h26.55a1.26,1.26,0,1,0,0-2.52Z"/><path class="cls-3" d="M350.09,137.93a33.06,33.06,0,1,1,66.12,0c0,1.08-.79,16.36-13.25,32.4-3.65,4.84-3,14.58-3,14.58H366.26s.71-9.74-2.93-14.58C350.86,154.27,350.09,139,350.09,137.93Z"/><path class="cls-2" d="M383.14,184.91H366.26s.71-9.74-2.93-14.58c-12.47-16.06-13.24-31.32-13.24-32.4a33.05,33.05,0,0,1,33.05-33.07"/><path class="cls-10" d="M409.18,137.92h-2.9a23.15,23.15,0,0,0-23.14-23.12v-2.91a26.07,26.07,0,0,1,26,26Z"/><polygon class="cls-16" points="390.37 187.49 387.5 187.01 393.15 152.83 396.02 153.3 390.37 187.49 390.37 187.49"/><polygon class="cls-16" points="375.92 187.49 370.27 153.3 373.14 152.83 378.79 187.01 375.92 187.49 375.92 187.49"/><path class="cls-16" d="M394.4,157.64c-1.2,0-1.71-1.14-2.08-2-.16-.36-.48-1.09-.67-1.09s-.38.64-.5.94c-.33.86-.86,2.14-2.25,2.14-.81,0-1.29-.83-1.86-1.79a8.4,8.4,0,0,0-.84-1.22,8.93,8.93,0,0,0-.68,1c-.61,1-1.18,2-2.09,2s-1.46-.92-2-1.91a7.37,7.37,0,0,0-.73-1.09,7.63,7.63,0,0,0-.75,1.13c-.57,1-1.11,1.87-2,1.87s-1.6-1-2.19-2a8.4,8.4,0,0,0-.67-1c-.24.08-.41.43-.7,1.14s-.75,1.92-1.92,1.92V156.1a3.19,3.19,0,0,0,.5-.94c.33-.86.83-2.14,2.22-2.14.82,0,1.32.82,1.9,1.78a6.42,6.42,0,0,0,.82,1.23,8,8,0,0,0,.69-1.05c.61-1,1.17-2,2.1-2s1.45.92,2,1.91a7.08,7.08,0,0,0,.71,1.09,7.91,7.91,0,0,0,.75-1.13c.59-1,1.13-1.87,2-1.87s1.61,1,2.19,2a9.7,9.7,0,0,0,.68,1c.22-.09.39-.43.68-1.15s.77-1.91,1.94-1.91,1.7,1.15,2.08,2c.16.35.48,1.08.67,1.08v1.54Z"/><path class="cls-16" d="M400,184.91V202.2a2.13,2.13,0,0,1-2.14,2.14H368.5a2.14,2.14,0,0,1-2.15-2.14V184.91Z"/><path class="cls-11" d="M400.66,188.28h-35a1.7,1.7,0,0,1,0-3.39h35a1.7,1.7,0,1,1,0,3.39Z"/><path class="cls-11" d="M400.66,193.93h-35a1.7,1.7,0,0,1,0-3.39h35a1.7,1.7,0,1,1,0,3.39Z"/><path class="cls-11" d="M400.66,199.58h-35a1.7,1.7,0,0,1,0-3.4h35a1.7,1.7,0,1,1,0,3.4Z"/><line class="cls-17" x1="383.13" y1="93.22" x2="383.13" y2="75.06"/><line class="cls-17" x1="359.98" y1="99.43" x2="350.9" y2="83.7"/><line class="cls-17" x1="343.03" y1="116.39" x2="327.31" y2="107.3"/><line class="cls-17" x1="336.84" y1="139.54" x2="318.67" y2="139.54"/><line class="cls-17" x1="423.25" y1="162.67" x2="438.99" y2="171.75"/><line class="cls-17" x1="429.45" y1="139.51" x2="447.62" y2="139.51"/><line class="cls-17" x1="423.24" y1="116.36" x2="438.97" y2="107.28"/><line class="cls-17" x1="406.28" y1="99.42" x2="415.37" y2="83.68"/><line class="cls-17" x1="383.13" y1="93.22" x2="383.13" y2="75.06"/><line class="cls-17" x1="383.17" y1="93.22" x2="383.17" y2="75.06"/><line class="cls-17" x1="406.31" y1="99.43" x2="415.39" y2="83.7"/><line class="cls-17" x1="423.25" y1="116.39" x2="438.99" y2="107.3"/><line class="cls-17" x1="429.44" y1="139.54" x2="447.62" y2="139.54"/><line class="cls-17" x1="343.03" y1="162.67" x2="327.31" y2="171.75"/><line class="cls-17" x1="336.84" y1="139.51" x2="318.67" y2="139.51"/><line class="cls-17" x1="343.06" y1="116.36" x2="327.32" y2="107.28"/><line class="cls-17" x1="360.01" y1="99.42" x2="350.91" y2="83.68"/><line class="cls-17" x1="383.17" y1="93.22" x2="383.17" y2="75.06"/><path class="cls-11" d="M307,200.15a301.86,301.86,0,0,1-78.65,0,139.77,139.77,0,0,1,0-60.79,300.13,300.13,0,0,1,78.65,0A140.07,140.07,0,0,1,307,200.15Z"/><path class="cls-16" d="M228.32,200.15a301.86,301.86,0,0,0,78.65,0,141,141,0,0,0,3.34-30.52H225A141.67,141.67,0,0,0,228.32,200.15Z"/><path class="cls-7" d="M283.72,168a1.91,1.91,0,0,1,0,3.5L261,185.8c-1.52,1-2.79.17-2.79-1.75V155.46c0-1.93,1.27-2.71,2.79-1.75Z"/><path class="cls-12" d="M258.17,184.05c0,1.92,1.27,2.72,2.79,1.75l22.76-14.29a2.07,2.07,0,0,0,1.14-1.88H258.17Z"/><path class="cls-16" d="M317.18,365l25-25a5.89,5.89,0,0,0,0-8.33l-86.47-86.48a5.9,5.9,0,0,0-8.35,0l-25,25a5.88,5.88,0,0,0,0,8.34L308.86,365A5.86,5.86,0,0,0,317.18,365ZM241.11,263.88a5.16,5.16,0,1,1,0,7.29A5.15,5.15,0,0,1,241.11,263.88Z"/><path class="cls-11" d="M336.29,345.84l5.9-5.91a5.89,5.89,0,0,0,0-8.33l-86.47-86.48a5.9,5.9,0,0,0-8.35,0l-5.89,5.9Z"/><line class="cls-18" x1="258.84" y1="248.23" x2="251.9" y2="255.18"/><line class="cls-18" x1="266.01" y1="255.4" x2="259.05" y2="262.34"/><line class="cls-18" x1="273.17" y1="262.57" x2="266.22" y2="269.51"/><line class="cls-18" x1="280.32" y1="269.73" x2="273.39" y2="276.67"/><line class="cls-18" x1="287.5" y1="276.89" x2="280.54" y2="283.83"/><line class="cls-18" x1="294.66" y1="284.05" x2="287.71" y2="291"/><line class="cls-18" x1="301.82" y1="291.22" x2="294.87" y2="298.16"/><line class="cls-18" x1="308.98" y1="298.38" x2="302.04" y2="305.33"/><line class="cls-18" x1="316.14" y1="305.55" x2="309.2" y2="312.49"/><line class="cls-18" x1="323.31" y1="312.71" x2="316.37" y2="319.66"/><line class="cls-18" x1="330.47" y1="319.88" x2="323.53" y2="326.82"/><line class="cls-18" x1="337.64" y1="327.04" x2="330.69" y2="333.99"/><path class="cls-19" d="M309.52,250.24,229.69,330.1c4.59,3.58,10.35,4.22,14.08,1.5L317.33,258Z"/><path class="cls-4" d="M335.9,276.62,317.33,258,243.77,331.6h0a.48.48,0,0,0-.05.11l.09-.08c-3,4.17-1.9,10.88,2.85,15.64s11.48,5.9,15.65,2.86l-.09.1s.09,0,.11-.06h0Z"/><path class="cls-19" d="M262.33,350.18c-2.7,3.73-2.05,9.5,1.54,14.09l79.85-79.85-7.82-7.8Z"/><path class="cls-7" d="M263.89,364.29c-3.61-4.6-4.26-10.37-1.56-14.11h0s-.07,0-.11.06l.09-.1c-4.17,3-10.86,1.9-15.65-2.86s-5.88-11.47-2.85-15.64l-.09.08a.48.48,0,0,1,.05-.11h0c-3.73,2.73-9.51,2.07-14.11-1.53l.16,34.07Z"/><path class="cls-19" d="M229.74,347.41l.08,16.73,16.72.07a63.86,63.86,0,0,0-7.61-9.19A65.21,65.21,0,0,0,229.74,347.41Z"/><rect class="cls-16" x="311.87" y="244.52" width="11.34" height="11.03" transform="translate(-83.81 297.69) rotate(-44.99)"/><rect class="cls-11" x="325.05" y="250.09" width="11.34" height="26.26" transform="translate(-89.27 310.85) rotate(-44.99)"/><polygon class="cls-16" points="336 276.52 343.8 284.33 351.83 276.31 344.02 268.5 336 276.52"/><path class="cls-1" d="M468.42,488.88c-53.26-5.56-96.47-64.14-68.8-65.68,27.13-1.51,9.05,30.14-3,39.19-15.87,11.89-54.27,15.07-110-81.4"/><path class="cls-2" d="M127,238.84a75.4,75.4,0,1,1,75.41-75.41A75.41,75.41,0,0,1,127,238.84Z"/><path class="cls-3" d="M202.28,167.69l-54.57-54.57h0a.67.67,0,0,0-.22-.19l-8.88-4.15a.72.72,0,0,0-.91.4l-4,8.67-.39-.17a.84.84,0,0,0-1.11.47l-.4.85a.84.84,0,0,0,.35,1.16l.39.18L131.26,123a.76.76,0,0,0,.11.81,2.06,2.06,0,0,0-.2.33l-1.53,3.28-1.37-.64a.92.92,0,0,0-1.2.43l-10.44,22.36a.88.88,0,0,0,.44,1.19l1.35.65-1.09,2.34c-.28.59-.26,1.2.06,1.34l.83.39-3.43,7.36c-.2.42-.19.84,0,.94l.07,0,21,20.95a21.86,21.86,0,0,1-2,1.77l-6.8-6.8a.81.81,0,0,0-.29-.29L98.44,166.2c-.45-.22-1,.11-1.35.75l-.34.74a1.25,1.25,0,0,0,.07,1.32h0l9.48,9.48-4.1-1.91c-.45-.22-1.17.35-1.59,1.27l-.52,1.12c-.43.91-.41,1.82,0,2h0l20.46,20.45H94.69c-1.16,0-2.09.64-2.09,1.43v4h-.88v2.8h0l28.82,28.84c2.12.17,4.26.29,6.43.29A75.41,75.41,0,0,0,202.28,167.69Z"/><path class="cls-20" d="M142.49,208.11V202.9c0-.79-.93-1.43-2.08-1.43H94.69c-1.16,0-2.09.64-2.09,1.43v5.21Z"/><rect class="cls-16" x="91.72" y="206.91" width="51.66" height="2.81"/><path class="cls-21" d="M141.34,144a21.72,21.72,0,0,0-4.92-1.64l-6.36,13.6c3.75-3.36,7.81-4.77,10.93-3.3,5.42,2.53,6,12.68,1.36,22.69s-12.87,16.05-18.29,13.52c-3.12-1.46-4.65-5.47-4.48-10.52l-6.36,13.61a22.84,22.84,0,0,0,4.42,2.73c12.52,5.85,28-.76,34.51-14.76S153.86,149.81,141.34,144Z"/><path class="cls-21" d="M126.68,158.07c-.28.6-.76,1-1.07.83l-8.22-3.85c-.32-.14-.34-.75-.06-1.34l13.84-29.61c.28-.6.77-1,1.07-.83l8.23,3.86c.3.14.33.74.05,1.34Z"/><path class="cls-21" d="M121.34,165.87c-.19.42-.53.66-.75.57l-5.77-2.7c-.22-.1-.23-.52,0-.94l9.7-20.79c.2-.41.53-.67.75-.57l5.78,2.7c.21.1.23.52,0,1Z"/><path class="cls-7" d="M130.34,155.94a.92.92,0,0,1-1.21.43l-12.06-5.65a.88.88,0,0,1-.44-1.19l10.44-22.36a.92.92,0,0,1,1.2-.43l12.08,5.64a.92.92,0,0,1,.44,1.2Z"/><path class="cls-7" d="M141.34,127.66a.71.71,0,0,1-.93.39l-8.86-4.14a.71.71,0,0,1-.29-1l6.44-13.77a.72.72,0,0,1,.91-.4l8.88,4.15a.72.72,0,0,1,.28,1Z"/><path class="cls-21" d="M144.05,124.76a.86.86,0,0,1-1.11.49l-10.84-5.08a.84.84,0,0,1-.35-1.16l.4-.85a.84.84,0,0,1,1.11-.47l10.85,5.06a.87.87,0,0,1,.34,1.16Z"/><path class="cls-21" d="M121.29,188.52a.9.9,0,0,1-1.21.44l-11-5.14a.92.92,0,0,1-.44-1.21l.26-.54a.9.9,0,0,1,1.2-.44l11,5.16a.87.87,0,0,1,.43,1.19Z"/><path class="cls-20" d="M112.75,184.88c-.43.92-1.15,1.49-1.59,1.27l-11-5.14c-.45-.22-.47-1.13,0-2l.52-1.12c.42-.92,1.14-1.49,1.59-1.27l11,5.15c.46.21.48,1.12,0,2Z"/><path class="cls-21" d="M124.47,183c-.44.92-1.15,1.49-1.61,1.28l-11-5.16c-.45-.19-.47-1.12,0-2l.52-1.12c.42-.91,1.13-1.48,1.6-1.27l11,5.14c.46.22.47,1.14,0,2.06Z"/><path class="cls-21" d="M142.54,147.08a6.28,6.28,0,1,1-3-8.35A6.28,6.28,0,0,1,142.54,147.08Z"/><path class="cls-20" d="M141.53,146.6a5.16,5.16,0,1,1-2.49-6.85A5.15,5.15,0,0,1,141.53,146.6Z"/><path class="cls-20" d="M126.65,181.67c-.29.62-.89,1-1.34.74L97.05,169.2a1.11,1.11,0,0,1-.3-1.51l.34-.74c.3-.64.9-1,1.35-.75l28.28,13.21a1.14,1.14,0,0,1,.28,1.52Z"/><path class="cls-20" d="M139.56,204.57l-3.93-10c-1-2.66-2.7-4.81-5.49-4.81-2,0-3.78,2.15-4,4.81l-.84,10Z"/><path class="cls-21" d="M133.53,193.81a3.05,3.05,0,1,1-3.05-3A3,3,0,0,1,133.53,193.81Z"/><path class="cls-4" d="M113.26,249.47a56.63,56.63,0,1,1-56.64-56.63A56.62,56.62,0,0,1,113.26,249.47Z"/><path class="cls-19" d="M56.62,192.84a56.63,56.63,0,1,1,0,113.25"/><path class="cls-7" d="M100.67,249.47a44,44,0,1,1-44.05-44.05A44,44,0,0,1,100.67,249.47Z"/><path class="cls-8" d="M17.3,252.62a44,44,0,0,1,66.06-38.14,44,44,0,1,0-48.74,73.13A43.93,43.93,0,0,1,17.3,252.62Z"/><path class="cls-16" d="M64.49,249.47a7.87,7.87,0,1,1-7.87-7.87A7.87,7.87,0,0,1,64.49,249.47Z"/><line class="cls-22" x1="76.56" y1="214.93" x2="75.35" y2="217.03"/><line class="cls-22" x1="37.89" y1="281.92" x2="36.69" y2="284.01"/><line class="cls-22" x1="91.17" y1="269.41" x2="89.09" y2="268.2"/><line class="cls-22" x1="24.2" y1="230.74" x2="22.1" y2="229.53"/><line class="cls-22" x1="36.7" y1="214.93" x2="37.9" y2="217.03"/><line class="cls-22" x1="75.37" y1="281.92" x2="76.59" y2="284.01"/><line class="cls-22" x1="22.1" y1="269.41" x2="24.2" y2="268.2"/><line class="cls-22" x1="89.09" y1="230.74" x2="91.17" y2="229.53"/><line class="cls-22" x1="16.75" y1="249.47" x2="19.17" y2="249.47"/><line class="cls-22" x1="94.1" y1="249.47" x2="96.52" y2="249.46"/><line class="cls-22" x1="56.62" y1="289.35" x2="56.64" y2="286.93"/><line class="cls-22" x1="56.62" y1="212" x2="56.62" y2="209.59"/><line class="cls-23" x1="56.64" y1="218.26" x2="56.64" y2="249.47"/><line class="cls-23" x1="42.97" y1="263.13" x2="56.09" y2="250.01"/><path class="cls-7" d="M61.49,249.47a4.85,4.85,0,1,1-4.87-4.85A4.87,4.87,0,0,1,61.49,249.47Z"/><path class="cls-9" d="M59,249.47a2.41,2.41,0,1,1-2.41-2.4A2.4,2.4,0,0,1,59,249.47Z"/><path class="cls-9" d="M56.64,250.52a1,1,0,0,1-.3-2.05l27.21-8.22a1,1,0,0,1,.62,2l-27.23,8.22a.79.79,0,0,1-.3.05Z"/><rect class="cls-24" x="212.93" y="91.07" width="32.65" height="27.22"/><polyline class="cls-25" points="212.93 109.13 220.48 101.35 230.26 111.86 237.68 106.91 244.59 112.85"/><path class="cls-24" d="M235,99.12a3.89,3.89,0,1,1-3.9-3.9A3.9,3.9,0,0,1,235,99.12Z"/><path class="cls-26" d="M538.48,425.44a61.52,61.52,0,1,0,0-123"/><path class="cls-27" d="M538.48,302.41a61.52,61.52,0,1,0,0,123"/><path class="cls-16" d="M597.33,380.64c-.81,0-1.87.41-1.88.69s-1.13.77-1.5.92a5,5,0,0,0-1.25,1.67c-.15.38-1.07.26-1.4.41s-1,.72-1,1.06-.2.29-.42-.09l-.44.46-.53.59a4.81,4.81,0,0,1-1.65,2.24c-.34.09-.39,1.75-.39,2.42a3.06,3.06,0,0,0,.57,1.83l.07.54.11,1.05a1.92,1.92,0,0,0,.62,1.69,8,8,0,0,0,2.29-.42,3.51,3.51,0,0,0,.82-.33,60.23,60.23,0,0,0,6.33-14.69A1.87,1.87,0,0,0,597.33,380.64Z"/><path class="cls-16" d="M495.76,382.23c-.1.16,1,1.29,1.44,1.68a11.27,11.27,0,0,1,1.52,2.83,4.41,4.41,0,0,1,0,1.83c-.06.23.21.75.26.95a14.9,14.9,0,0,0-.22,2.77c.15.72-.85,3-.83,4.12s.54,2.59.73,2.49.29,1-.06,1.16-.74,1-.55,1.08,0,.93,0,1.29.35,2.69.41,3.27a18.28,18.28,0,0,0,1.08,2.5c.17.48.35,1.39.42,1.53s.16.29.16.29a4.46,4.46,0,0,1,.87.41,5.47,5.47,0,0,0,2-.05c.43-.08,0-.48-.15-.68s-.38-1.26-.61-1.37-.3-1.43-.11-1.72,1-.76,1.08-1,.1-1.4-.11-1.55.06-1.56-.1-2.26,1.2-1.33,1.29-1.87,1.55-1.15,1.89-1.43a3.48,3.48,0,0,0,.47-2.19c-.16-.34.55-.61.86-.61a4.14,4.14,0,0,0,.79-.23c.11,0,.49-.7.69-.86s.62-1.83,1-2.11a2.94,2.94,0,0,0,.68-1.57,4.65,4.65,0,0,1,.74-1.43,7.34,7.34,0,0,1,1.81-1c.25-.1.62-2.32.72-3.11a21.07,21.07,0,0,1,.54-2.12c0-.27.46-.49.55-.58s.42-1.09.63-1.33a7.34,7.34,0,0,0,1-1.42,9.19,9.19,0,0,1,.26-1.23v-1.41c-.24-.67-1-1.5-1.17-1.31s-1-.6-1.48-.76a8.44,8.44,0,0,0-1.79-.3c-.28,0-1.23-.78-1.66-.91s-1.52-.34-1.71-.47-.47-1.74-1.34-2.27a9.41,9.41,0,0,1-2.59-2.22c-.16-.45-1.84-1.4-2.37-1.69a2.09,2.09,0,0,0-1.4-.25c-.1.1-.73-.88-1.08-1.15s-1.35-.5-1.39-.26-.71.12-.87-.09-.67.09-.91.17-1.09,1.35-1.47,1.66-.85-.29-1.1-.39a2.85,2.85,0,0,0-1.48.37c-.26.18-.87-1.35-.73-2.06s-.63-2.12-1.23-2.15-.79-1.52-.67-2.07-1.08-.88-1.38-.92-1.06.73-1.18,1.1-2.85-.5-2.53-2.14a7.35,7.35,0,0,1,1.94-3.52,5,5,0,0,1,2.44-.08.66.66,0,0,0,.81-.09,5.25,5.25,0,0,1,1.93.18c.42.18,1,1.82,1.47,2s.6-1.07.66-1.37a3.08,3.08,0,0,0-.31-1.31,4.43,4.43,0,0,1,1.39-2.57A3.15,3.15,0,0,0,497,350.8c-.07-.2.53-.35.68-.44s0-1.7.24-2.05a8,8,0,0,1,1.92-1.26,1.49,1.49,0,0,0,.54-1.36c-.14-.18,1-1.18,1.63-1.37s1.14.35,1,.43c.12-.06,1-.5,1.32-.73s0-1-.27-1.26-.1-1.1.21-1.18.6-.83.52-1,1.34.12,1.88-.27.15.95-.24,1.5a.63.63,0,0,0,.55,1c.25-.12.52.28.57.44s.6-.17,1,0,.57-.49.59-.78-.85-.92-1-1.28a22,22,0,0,1-.21-2.87c0-.43-.59-1.12-.78-1s-.56-1.1-.85-1.37a1.47,1.47,0,0,1-.36-1.05c0-.21-1-1.27-1.27-1.77s-.58-.39-.6-.17-.73.26-1,.24-.52-1.16-.52-1.58-1.32-.5-1.53-.85-1.08-.18-1.22-.42a1.41,1.41,0,0,0-1.05-.37c-.16.09-.08,3.15-.24,4s-.83,1.55-1.08,1.53-.11.58.08.53-.51.9-.6,1.54-.72,0-.83-.6-.72-1.35-.83-1.15-.55-.22-.75-.11-1.35-.68-1.83-.94-.73-1.71-1-1.83-.05-.31-.05-.54.9-1.06,1.19-1.4a17,17,0,0,1,1.69-1.94,1.74,1.74,0,0,0,.66-1.19,11.54,11.54,0,0,1,2.21-.86c.49-.17.91-1.53,1-1.92a1.66,1.66,0,0,0-.53-1.22c-.23-.1.68-.14,1,0s1.24-.26,1.6-.07,1.1.63,1.64,1l-.12,1-.22,1.69c-1.4.59-1.82,1.59-1.32,1.58a11.28,11.28,0,0,1,3.39,1.43c.64.46.84-.66,1-1a2.85,2.85,0,0,0,0-1.67c-.16-.21.74-.13,1,.11s.54-.25.73-.33.29-1,.39-1.21-.43-.38-.43-.61-1-.67-1.36-.84a.78.78,0,0,1-.25-1c.15-.12-.11-1-.28-1.31s-1.22-.53-1.57-.53-.73-.82-.92-.94a5.37,5.37,0,0,0-1.91-.17c-.34.1-.95-1-1.52-.64s-1.16-.39-1.41-.53-1.6,1.29-1.58,2.3a2.75,2.75,0,0,0,.73,2c.2,0-.06.94-.29,1.19s-.79-.27-.57-.51-.59-1.27-.85-1.7a3.15,3.15,0,0,0-1.36-.76c-.28.29-.54.59-.8.9a2.59,2.59,0,0,1,.11,1.2c-.21.62-.72.71-.75.44,0-.12-.27-.2-.58-.25a61.23,61.23,0,0,0-13.83,32.15,4.15,4.15,0,0,1,.73,1c.16.53,1.1.89,1.28,1s.24-1,.11-1.33.22-.47.21-.25a9,9,0,0,0,1.18,1.58c.3.36.6,2.71.87,3.21s3,1.55,3.87,1.72a4.77,4.77,0,0,1,2.14,1.45c.18.29,1.33.43,1.57.54s.85.9,1.1,1.07a1.33,1.33,0,0,1,.44.75c0,.12,1.53.7,1.9,1.11a.84.84,0,0,0,1.1.13c.12-.17.42.81.58,1.15a2.23,2.23,0,0,1,.07,1.31,20.12,20.12,0,0,1-.59,2,7.88,7.88,0,0,0-.69,3,3.44,3.44,0,0,0,1.14,1.49.35.35,0,0,1-.07.64c-.24,0-.13,2.18.45,2.49S495.85,382.06,495.76,382.23Z"/><path class="cls-16" d="M503,344.75Z"/><path class="cls-16" d="M498.79,318.81c.74-.13,2-.33,2-.54a1.29,1.29,0,0,0-.07-.84h.35c.28,0,.75-1.53,1-1.88a15.85,15.85,0,0,1,2.38-1.14,17.72,17.72,0,0,1,1.61-1.17c.34-.12.84-.9.77-1.06s1.13-.89,1.59-1.09.71-.73.53-.75-2.67,1.33-5,2.66a61.72,61.72,0,0,0-7.58,6.08C497.17,319,498.3,318.89,498.79,318.81Z"/><path class="cls-16" d="M543.28,395.37c.79-.46,2.12-2.44,2.56-2.85a6.8,6.8,0,0,0,.86-2.25,2.16,2.16,0,0,1,1-.93c.25-.07,1-3.38,1.74-4.11s1.53-4.22,1.44-5.49a16.61,16.61,0,0,1,.62-4.24,5.34,5.34,0,0,1,1.32-1.81,43.45,43.45,0,0,0,2.51-3.62,8.2,8.2,0,0,0,.95-3.32c-.11-.47-1.29-.79-1.5-.56a4.05,4.05,0,0,1-1.69.42c-.35,0-1.17-1.9-1.66-2.3s-1-2.56-1.25-3a19.51,19.51,0,0,0-1.36-1.69c-.26-.24-.3-1.39-.36-1.71s.49.21.6.66a20.17,20.17,0,0,0,1.79,2.94c.4.63,1.46,2.61,1.73,3.23s2.64.31,3.41-.06a5.09,5.09,0,0,0,1.77-1.18c0-.21,1.25-.78,1.59-1s.63-1.7.87-1.92-.19-1.59-.44-2a2.15,2.15,0,0,0-1.73-.57c-.24.16-.78-.91-1-1.29s-1.12-.88-1.23-1.15.26-.7.41-.8a8.32,8.32,0,0,1,2.37,1.73,11.69,11.69,0,0,1,1.16,1.91,2.54,2.54,0,0,0,1.76.07c.31-.23.66-.17.78.12l.43-.07,1.49-.23a3,3,0,0,1,.9,1.58,1.54,1.54,0,0,0,.72.84c.3.06.51,1.05.6,1.3s.93,1.7,1.12,2.32a14.15,14.15,0,0,0,1.07,2.14A5.31,5.31,0,0,1,569,368a1.1,1.1,0,0,0,.89.73c.34,0,1-2.17,1.19-3a2.16,2.16,0,0,1,.87-1.45c.15,0,.27-.45.27-.63s.88-.15.95-.36.32-1.64.64-1.86a15.82,15.82,0,0,1,1.8-1.07c.39-.13,1.37.72,1.59,1.12a3.64,3.64,0,0,1,.34,1.57c-.09.16.51,1,1,1s.69.66.71.9.71,1,.84,1.28a2.68,2.68,0,0,1,0,1.35,4.43,4.43,0,0,0,.08,1.64,15,15,0,0,0,2.3,2.45c.61.49.91-1,.58-1.48s-1.35-1.56-1.6-1.89a3.87,3.87,0,0,1-.19-2c.08-.37.91.2,1.26.46a2.72,2.72,0,0,1,.8,1.05c0,.2,2.18-1,2.25-2.33a14.12,14.12,0,0,1,.87-3.14c.08-.35-.21-.82-.4-.84s.33-1,.94-1,2.06-1.61,2.41-2.25a5.24,5.24,0,0,1,1.11-1.26,11.16,11.16,0,0,0,.65-2.23,6,6,0,0,0-.42-1.95,5.86,5.86,0,0,0-.7-1.31,2.84,2.84,0,0,1-.18-1.28c.09-.16.64-.34.69-.48s.68-.82.65-1.12.39.39.67.63.59,1.81,1,2,1.78-1.66,1.61-2.85a3.77,3.77,0,0,1,.76-2.84,7.28,7.28,0,0,0,1.39-1.74A61.64,61.64,0,0,0,581.47,320a.86.86,0,0,1-.23,0l-.54-.11c-.87-.19-1.39-1.13-1.24-1.35a.54.54,0,0,0,0-.42c-.48-.44-1-.88-1.5-1.3h-1.12a4.73,4.73,0,0,1-1.87-.6c-.21-.21-.9.18-.94.56s-1.25.55-1.36.85a.67.67,0,0,1-.87.15c-.11-.17-1.24.39-1.79.47a9.88,9.88,0,0,0-1.84.64,3,3,0,0,0-.93.92c-.09.24-.82.64-1,.73s-.18,1.13.12,1.28-.56-.13-.92-.31-.79.43-.91.66-.45-.14-.44-.44-.92-.56-1-.32-.77-.08-1-.22-1.43,1.06-1.86,1.5a5,5,0,0,1-2.86.6c-.39-.15-.77.92-.43,1s-.84-.06-1.47,0a10.33,10.33,0,0,0-2.94,1.13.49.49,0,0,1-.81-.32c0-.26-.7-.49-.91-.56s-.62,1.39-1,1.67-.8-1.14-1.68-1.38-2.21-1.07-2.61-1.16a5.4,5.4,0,0,1-1.36-1.15,4,4,0,0,0-1.68-.42,5.31,5.31,0,0,0-1.8.92c-.33.25-.78.2-.93.3s-1.46,1.35-2,1.75a16.15,16.15,0,0,0-1.67,2.52,1.11,1.11,0,0,1-.86.49c-.17,0-.31.46-.31.63s-1.48.95-1.64,1.63a15.41,15.41,0,0,0,.14,2.76c0,.55.55,1.64,1,1.66s.2.92.08,1.19.27.53.26.75-1,.53-1.37.64a2.49,2.49,0,0,0-.9,1.12c0,.23-1,.39-1.38.71a6,6,0,0,1,.29-.72,1.19,1.19,0,0,0-.24-1.11c-.15-.14-.22-1.92-.47-2.3a7.73,7.73,0,0,0-1-1.17c-.16-.12.1-.59.19-.8s-.84-.31-1.08-.16-.4,1.92-.5,2.4a1.62,1.62,0,0,0,.61,1.27c.15,0,.11.9-.21.93s-.62,1.31-.46,1.6-.23.86-.43,1,1.25.05,1.91,0,1.16.28,1.1.34-1.26.23-1.47.51-1,.82-1.17,1,.26.69.6.66.72,1.19,1,1.41.16.84,0,1-1.72-.11-2.33,0-1.38,1.43-1.43,1.93a11.63,11.63,0,0,0,.18,2.26c.07.38,1.35.63,1.61.82s1.48,0,1.74.13,1.06-1.24,1.24-1.88,1.45-1.78,1.72-2.21,1.67-.38,2-.61.15,1.07.32,1.77,1.51.62,1.31,0,.14-.95.19-.71,1.35.77,1.58,1.14.19,1.16-.11,1.16-.29.87,0,1,.71-1,1-1.15.59-.83.44-.89.28-.66.45-.45a7,7,0,0,0-1.22-1.88c-.56-.55-.17-.31.85.55l.72,1c.13.17.31.71.44.91l.16.29a6.77,6.77,0,0,1,.26,1.56,1.11,1.11,0,0,0,.89.73c.34,0,.6.16.53.17s.21.68.55.7.49-.86.14-.88-.28-1.26-.33-1.81.25-1,.37-1,0,1.11,0,1.37a4.09,4.09,0,0,0,.3,1.12l.35.27.78.6c1.11-.33,2.61-.08,2.56.15s.82.28.87-.08.09,0,.09.26-.73,1.25-.84,1.7-2.7.15-3.82.06-2.72.3-2.85.63-1.85-.76-2.65-1.09-1.42-1.54-1.58-1.7.15-.55.08-.79a4.31,4.31,0,0,0-2.42-.09c-.53.2-3.24.48-3.88.76a3.48,3.48,0,0,1-1.91-.07c-.29-.06-1,.83-1.37,1s-.83,1.42-1,2.79l-.5.95-.31.62c-.9.68-1.89,2.95-2.18,3.41a21.92,21.92,0,0,0-.52,4.83,15.21,15.21,0,0,0,1.23,4.06,9.83,9.83,0,0,0,2.48,2.42,9,9,0,0,0,3,.38,1.86,1.86,0,0,0,1.5-1.25l.86.08.4,0c0,.48,1.3.88,1.61,1a2.68,2.68,0,0,0,1.41,0c.25-.07.52,2.18.35,2.84s.44,2.95.62,3.63,1,2.58,1,3.26a33,33,0,0,1-.55,3.71c-.08.79,1,3,1.28,3.75a13.19,13.19,0,0,1,.5,2.77c0,.38,1.17,2.66,1.44,3.6S542.49,395.84,543.28,395.37Z"/><path class="cls-16" d="M594,367.44c.09.18.82-.42,1.27-.48s.72-1.26.37-1.34-.79-1-1-1.13-.74.4-.73.76-.8.51-1,.81-.15.51,0,.49S593.92,367.28,594,367.44Z"/><path class="cls-16" d="M593.09,373.9c.22-.08,0-1.25-.48-1.35s-1.74,1.55-1.5,2.5.51.88.64.69.89.12,1.12.2.22-.16,0-.5A1.75,1.75,0,0,1,593.09,373.9Z"/><path class="cls-16" d="M590.57,372.77c0-.42.14-1.74.2-2s-.7-1-1.1-1.14-1.62,2.55-2.51,3a2.55,2.55,0,0,0-1,2.5c.25.37,2.11.58,2.43.86s.68,0,.88-.09.13-.18.06-.23.65-.81.75-1.29S590.51,373.18,590.57,372.77Z"/><path class="cls-16" d="M585.52,377.23a1.41,1.41,0,0,0-1.58.43c-.07.26,2.69.71,3.59.95s1.48.33,1.27.18S586.21,377.5,585.52,377.23Z"/><path class="cls-16" d="M591.1,359.34c.22-.3-.3-1.74-.57-1.42s-.07,1.17,0,1.46S590.89,359.65,591.1,359.34Z"/><path class="cls-16" d="M592.76,362.43c.16-.36-.2-.78-.79-.91s-.51,1.67-.24,1.9S592.59,362.81,592.76,362.43Z"/><path class="cls-16" d="M595.86,373.53c.71.49,2.3.26,2.34-.7C597.5,372.38,595.8,372.45,595.86,373.53Z"/><path class="cls-16" d="M595.47,351.57a1.05,1.05,0,0,0-.36.95H595c-.23,0-.26.93,0,1.09s.85-.72,1.16-.93a1.8,1.8,0,0,1,1-.29,2.66,2.66,0,0,0,1.23-.36,1,1,0,0,0,.34-.42c-.13-.68-.3-1.36-.47-2-.28.23-.63.46-.78.59C597.18,350.45,595.86,351.3,595.47,351.57Z"/><path class="cls-16" d="M579.21,370.46h0C579.09,370.37,579.08,370.36,579.21,370.46Z"/><path class="cls-16" d="M583.65,374.59a7.46,7.46,0,0,0-1.89-2.19l-.31-.49-.32-.54c-.29-.59-1.18-1.05-1.25-1.22s-.36.51-.66.31c.16.1.49.35.95.67.84.59,2.42,4.61,2.78,4.88S583.89,375.17,583.65,374.59Z"/><path class="cls-16" d="M571,368.11c-.22.46,1.18,1.42,1.28,1.2a2.62,2.62,0,0,0-.43-1.58C571.55,367.49,571.17,367.66,571,368.11Z"/><path class="cls-16" d="M552.36,389.52c.06.47,1,.85,1.31.77a5.21,5.21,0,0,0,1.16-1.92,9.74,9.74,0,0,0,.2-1.53,1.42,1.42,0,0,1,.24-.75,2.32,2.32,0,0,0,.39-1.08,30.91,30.91,0,0,0-.6-3.51c0-.45-.52.22-.65.67s-1.39,1.36-1.66,1.74a3.82,3.82,0,0,0-.49,1.89,2.77,2.77,0,0,1-.24,1.36A14.21,14.21,0,0,0,552.36,389.52Z"/><path class="cls-16" d="M507,407h.83C508,406.08,507,406.24,507,407Z"/><path class="cls-16" d="M529.55,311.82a3,3,0,0,1-1.44-.31,3.59,3.59,0,0,0-1.92-.16c-.4.17-.12-1,.42-1.08s.09-.9-.5-.9-2-.23-2.37-.15-1-.24-1.26-.26-2,.51-2.8.47a18.88,18.88,0,0,0-3.29.17c-.45.11-.77,1-.7,1.27s-2,.31-2.59.31a20.5,20.5,0,0,0-4.91,1.23c-.89.48-1.59,1.73-1.29,1.74s-.49.73-1,.9-1.61.24-1.88.51.28.45.39.63.42-.16.73,0a13.31,13.31,0,0,0,1.54.33c.26.12-.84.33-1.36.36s-.39,1.06,0,1.19,1.51.3,1.62.12,1.3.2,1.84.26.93,1.39,1.09,1.68a4.09,4.09,0,0,1,.16,1.59c0,.3.94.83,1.12.65s.13.46-.27.42-.14,1.09.34,1.26.17.86-.12,1.06-.13.87-.41,1.11,1,2.48,1,3.63.71,2.1,1,2.1,1.23.23,1.35.48.59-.17.77-.36a8.26,8.26,0,0,0,.85-1.23,28.42,28.42,0,0,0,1-3.05c.09-.24,1.17-.09,1.42-.22a12.29,12.29,0,0,0,1.15-.86c.21-.16,1.77-.82,2.18-1.13a23.4,23.4,0,0,0,1.45-1.9c.34-.27-.15-.19-.58-.46a.43.43,0,0,1-.1-.72,4.91,4.91,0,0,1,1.79.36c.44.17,1.26-.42.94-.65s-.15-.22,0-.12.32-.76.15-.92,1.27-1.2,1-2.19.4-2,.77-2,.28-1.12-.18-1.22,0-.2.15-.36a2.31,2.31,0,0,0,.28-1.33c-.1-.19.71-.4.84-.62a3.89,3.89,0,0,1,1.4-.74C529.72,312.65,529.9,311.77,529.55,311.82Z"/><path class="cls-16" d="M537.56,312.62c-.44-.14-1.32.34-1.21.62s-.73-.35-1.31-.06-.74,1.33-.47,1.47.46,1,.46,1.11,1.14,0,1.43-.2.24.83,0,1.12.1.86.41.91.74.78,1.06.78.87-1.25,1-1.72,1.21-.11,1.7.05.67-1.71.13-2-1.19-.14-1.41-.36a2.07,2.07,0,0,0-.85-.45C538.22,313.87,538,312.77,537.56,312.62Z"/><path class="cls-16" d="M541.86,313.51a3,3,0,0,0,2-.79c.21-.21-2.41-.73-3.4-.77s-1.8.11-1.79.3A9.66,9.66,0,0,0,541.86,313.51Z"/><path class="cls-16" d="M526,337c-.23-.1-.35.76-.31,1.09s.86.29,1.2.24a.66.66,0,0,0,.59-.63c0-.27-.5-1.55-.69-1.55S526.25,337.08,526,337Z"/><path class="cls-16" d="M528.59,327c-.18-.32-1.53-.27-1.87-.29a4.24,4.24,0,0,1-1.54-.57c-.2-.22-.34.83-.66,1s.16.33.29.22,0,.55-.15.77.9.38,1,.72a.88.88,0,0,0,1,.49c.41-.07,1.22-.49,1.52-.51S528.77,327.32,528.59,327Z"/><path class="cls-16" d="M557.19,319.2c.46-.46,2.39-1.1,2.61-1.58a.61.61,0,0,0-.33-.88.76.76,0,0,0-.48.32c0,.08-2.26.6-2.94.93a8.34,8.34,0,0,0-1.75,1.11c-.27.3-.75,2.48-.92,2.73s.74,1.14,1.14,1.38a1.53,1.53,0,0,0,1.09.08,5.43,5.43,0,0,0-.4-2.11C555,320.64,556.71,319.68,557.19,319.2Z"/><path class="cls-16" d="M554.83,313.5c.73.72,1.12-.32,1.92-.22C556.73,311.82,554.76,312.32,554.83,313.5Z"/><path class="cls-16" d="M569,313.78c0,.27,2,.48,2.6.37s-.11-1-1-1S569,313.5,569,313.78Z"/><path class="cls-16" d="M495.34,328.85c-.21.2,0,1.2.39,1.22s1.06-1.5,1.56-1.2.83.43.75.27a15.58,15.58,0,0,0-1.68-.9C496.18,328.14,495.58,328.65,495.34,328.85Z"/><path class="cls-16" d="M500.55,362.6c0,.17.88.14,1-.13s.06-.49-.17-.49S500.55,362.43,500.55,362.6Z"/><path class="cls-16" d="M496.6,361.15c.43-.08.22.6.33.84s1.12.45,1.32.62.73-.31,1.13-.27-.12-1.4-.81-1.36-1.22-.62-1.38-.7a9.24,9.24,0,0,1-1.18-.74,9.7,9.7,0,0,0-2.55-.33,1.88,1.88,0,0,0-1.33.81c-.11.19.93.33,1.23.17a2.92,2.92,0,0,1,1.95.5A1.51,1.51,0,0,0,496.6,361.15Z"/><path class="cls-16" d="M494.75,362.6c0,.17.9.06,1.11.07s.21-.14,0-.33S494.75,362.43,494.75,362.6Z"/><path class="cls-16" d="M495.39,358c-.24-.09-.42.28-.42.46a.29.29,0,0,0,.28.31C495.41,358.76,495.62,358.09,495.39,358Z"/><path class="cls-16" d="M497.25,358.14c-.07-.18-.45-.31-.57-.31s-.21.3-.18.65S497.33,358.31,497.25,358.14Z"/><path class="cls-16" d="M498.61,360.22c.36-.18.4-.6.18-.58s-.6-.63-.84-.71-.42.38-.42.59.14.35.29.31S498.25,360.39,498.61,360.22Z"/><path class="cls-16" d="M598.55,374.27c-.19.1-1.09.2-1.2,0s-.31.37-.51.46-.07.55.21.41,1.06.37,1.76.81c.13-.69.25-1.38.37-2.08Z"/><path class="cls-11" d="M495.76,382.23c-.1.16,1,1.29,1.44,1.68a11.27,11.27,0,0,1,1.52,2.83,4.41,4.41,0,0,1,0,1.83c-.06.23.21.75.26.95a14.9,14.9,0,0,0-.22,2.77c.15.72-.85,3-.83,4.12s.54,2.59.73,2.49.29,1-.06,1.16-.74,1-.55,1.08,0,.93,0,1.29.35,2.69.41,3.27a18.28,18.28,0,0,0,1.08,2.5c.17.48.35,1.39.42,1.53s.16.29.16.29a4.46,4.46,0,0,1,.87.41,5.47,5.47,0,0,0,2-.05c.43-.08,0-.48-.15-.68s-.38-1.26-.61-1.37-.3-1.43-.11-1.72,1-.76,1.08-1,.1-1.4-.11-1.55.06-1.56-.1-2.26,1.2-1.33,1.29-1.87,1.55-1.15,1.89-1.43a3.48,3.48,0,0,0,.47-2.19c-.16-.34.55-.61.86-.61a4.14,4.14,0,0,0,.79-.23c.11,0,.49-.7.69-.86s.62-1.83,1-2.11a2.94,2.94,0,0,0,.68-1.57,4.65,4.65,0,0,1,.74-1.43,7.34,7.34,0,0,1,1.81-1c.25-.1.62-2.32.72-3.11a21.07,21.07,0,0,1,.54-2.12c0-.27.46-.49.55-.58s.42-1.09.63-1.33a7.34,7.34,0,0,0,1-1.42,9.19,9.19,0,0,1,.26-1.23v-1.41c-.24-.67-1-1.5-1.17-1.31s-1-.6-1.48-.76a8.44,8.44,0,0,0-1.79-.3c-.28,0-1.23-.78-1.66-.91s-1.52-.34-1.71-.47-.47-1.74-1.34-2.27a9.41,9.41,0,0,1-2.59-2.22c-.16-.45-1.84-1.4-2.37-1.69a2.09,2.09,0,0,0-1.4-.25c-.1.1-.73-.88-1.08-1.15s-1.35-.5-1.39-.26-.71.12-.87-.09-.67.09-.91.17-1.09,1.35-1.47,1.66-.85-.29-1.1-.39a2.85,2.85,0,0,0-1.48.37c-.26.18-.87-1.35-.73-2.06s-.63-2.12-1.23-2.15-.79-1.52-.67-2.07-1.08-.88-1.38-.92-1.06.73-1.18,1.1-2.85-.5-2.53-2.14a7.35,7.35,0,0,1,1.94-3.52,5,5,0,0,1,2.44-.08.66.66,0,0,0,.81-.09,5.25,5.25,0,0,1,1.93.18c.42.18,1,1.82,1.47,2s.6-1.07.66-1.37a3.08,3.08,0,0,0-.31-1.31,4.43,4.43,0,0,1,1.39-2.57A3.15,3.15,0,0,0,497,350.8c-.07-.2.53-.35.68-.44s0-1.7.24-2.05a8,8,0,0,1,1.92-1.26,1.49,1.49,0,0,0,.54-1.36c-.14-.18,1-1.18,1.63-1.37s1.14.35,1,.43c.12-.06,1-.5,1.32-.73s0-1-.27-1.26-.1-1.1.21-1.18.6-.83.52-1,1.34.12,1.88-.27.15.95-.24,1.5a.63.63,0,0,0,.55,1c.25-.12.52.28.57.44s.6-.17,1,0,.57-.49.59-.78-.85-.92-1-1.28a22,22,0,0,1-.21-2.87c0-.43-.59-1.12-.78-1s-.56-1.1-.85-1.37a1.47,1.47,0,0,1-.36-1.05c0-.21-1-1.27-1.27-1.77s-.58-.39-.6-.17-.73.26-1,.24-.52-1.16-.52-1.58-1.32-.5-1.53-.85-1.08-.18-1.22-.42a1.41,1.41,0,0,0-1.05-.37c-.16.09-.08,3.15-.24,4s-.83,1.55-1.08,1.53-.11.58.08.53-.51.9-.6,1.54-.72,0-.83-.6-.72-1.35-.83-1.15-.55-.22-.75-.11-1.35-.68-1.83-.94-.73-1.71-1-1.83-.05-.31-.05-.54.9-1.06,1.19-1.4a17,17,0,0,1,1.69-1.94,1.74,1.74,0,0,0,.66-1.19,11.54,11.54,0,0,1,2.21-.86c.49-.17.91-1.53,1-1.92a1.66,1.66,0,0,0-.53-1.22c-.23-.1.68-.14,1,0s1.24-.26,1.6-.07,1.1.63,1.64,1l-.12,1-.22,1.69c-1.4.59-1.82,1.59-1.32,1.58a11.28,11.28,0,0,1,3.39,1.43c.64.46.84-.66,1-1a2.85,2.85,0,0,0,0-1.67c-.16-.21.74-.13,1,.11s.54-.25.73-.33.29-1,.39-1.21-.43-.38-.43-.61-1-.67-1.36-.84a.78.78,0,0,1-.25-1c.15-.12-.11-1-.28-1.31s-1.22-.53-1.57-.53-.73-.82-.92-.94a5.37,5.37,0,0,0-1.91-.17c-.34.1-.95-1-1.52-.64s-1.16-.39-1.41-.53-1.6,1.29-1.58,2.3a2.75,2.75,0,0,0,.73,2c.2,0-.06.94-.29,1.19s-.79-.27-.57-.51-.59-1.27-.85-1.7a3.15,3.15,0,0,0-1.36-.76c-.28.29-.54.59-.8.9a2.59,2.59,0,0,1,.11,1.2c-.21.62-.72.71-.75.44,0-.12-.27-.2-.58-.25l-.82,1q-.4.5-.78,1c-.28.36-.56.71-.83,1.1s-.47.66-.71,1-.7,1-1,1.5-.64,1-.94,1.48-.52.87-.78,1.3-.35.6-.51.9c-.27.46-.51.91-.76,1.38-.14.26-.28.53-.4.79-.56,1.08-1.09,2.2-1.57,3.31l0,.1c-.24.55-.46,1.11-.7,1.68-.08.2-.15.41-.25.63-.22.58-.44,1.16-.64,1.74,0,.1-.07.2-.11.3-.67,2-1.26,4-1.74,6,0,.15-.07.28-.09.41a57.1,57.1,0,0,0-1.11,6.47v0a4.35,4.35,0,0,1,.72,1c.16.53,1.1.89,1.28,1s.24-1,.11-1.33.22-.47.21-.25a9,9,0,0,0,1.18,1.58c.3.36.6,2.71.87,3.21s3,1.55,3.87,1.72a4.77,4.77,0,0,1,2.14,1.45c.18.29,1.33.43,1.57.54s.85.9,1.1,1.07a1.33,1.33,0,0,1,.44.75c0,.12,1.53.7,1.9,1.11a.84.84,0,0,0,1.1.13c.12-.17.42.81.58,1.15a2.23,2.23,0,0,1,.07,1.31,20.12,20.12,0,0,1-.59,2,7.88,7.88,0,0,0-.69,3,3.44,3.44,0,0,0,1.14,1.49.35.35,0,0,1-.07.64c-.24,0-.13,2.18.45,2.49S495.85,382.06,495.76,382.23Z"/><path class="cls-11" d="M498.79,318.81c.74-.13,2-.33,2-.54a1.29,1.29,0,0,0-.07-.84h.35c.28,0,.75-1.53,1-1.88a15.85,15.85,0,0,1,2.38-1.14,17.72,17.72,0,0,1,1.61-1.17c.34-.12.84-.9.77-1.06s1.13-.89,1.59-1.09.71-.73.53-.75-2.67,1.33-5,2.66c0,0-.05,0-.07.05-.67.45-1.34.93-2,1.42-.46.33-.89.66-1.31,1-.24.18-.48.36-.7.55-.52.41-1,.84-1.54,1.28l-.32.27c-.56.49-1.11,1-1.66,1.5C497.17,319,498.3,318.89,498.79,318.81Z"/><path class="cls-11" d="M537.71,348.85c-.27,0-.29.87,0,1s.5-.49.76-.86v-3.42a.35.35,0,0,1-.06-.09c-.38-.36-.32-.37.06-.08V324.31c-.31.29-.62.56-.81.71a16.15,16.15,0,0,0-1.67,2.52,1.11,1.11,0,0,1-.86.49c-.17,0-.31.46-.31.63s-1.48.95-1.64,1.63a15.41,15.41,0,0,0,.14,2.76c0,.55.55,1.64,1,1.66s.2.92.08,1.19.27.53.26.75-1,.53-1.37.64a2.49,2.49,0,0,0-.9,1.12c0,.23-1,.39-1.38.71a6,6,0,0,1,.29-.72,1.19,1.19,0,0,0-.24-1.11c-.15-.14-.22-1.92-.47-2.3a7.73,7.73,0,0,0-1-1.17c-.16-.12.1-.59.19-.8s-.84-.31-1.08-.16-.4,1.92-.5,2.4a1.62,1.62,0,0,0,.61,1.27c.15,0,.11.9-.21.93s-.62,1.31-.46,1.6-.23.86-.43,1,1.25.05,1.91,0,1.16.28,1.1.34-1.26.23-1.47.51-1,.82-1.17,1,.26.69.6.66.72,1.19,1,1.41.16.84,0,1-1.72-.11-2.33,0-1.38,1.43-1.43,1.93a11.63,11.63,0,0,0,.18,2.26c.07.38,1.35.63,1.61.82s1.48,0,1.74.13,1.06-1.24,1.24-1.88,1.45-1.78,1.72-2.21,1.67-.38,2-.61.15,1.07.32,1.77,1.51.62,1.31,0,.14-.95.19-.71,1.35.77,1.58,1.14S538,348.85,537.71,348.85Z"/><path class="cls-11" d="M538.48,353c-.26-.14-.51-.26-.7-.34-.79-.34-1.42-1.54-1.58-1.7s.15-.55.08-.79a4.31,4.31,0,0,0-2.42-.09c-.53.2-3.24.48-3.88.76a3.48,3.48,0,0,1-1.91-.07c-.29-.06-1,.83-1.37,1s-.83,1.42-1,2.79l-.5.95-.31.62c-.9.68-1.89,2.95-2.18,3.41a21.92,21.92,0,0,0-.52,4.83,15.21,15.21,0,0,0,1.23,4.06,9.83,9.83,0,0,0,2.48,2.42,9,9,0,0,0,3,.38,1.86,1.86,0,0,0,1.5-1.25l.86.08.4,0c0,.48,1.3.88,1.61,1a2.68,2.68,0,0,0,1.41,0c.25-.07.52,2.18.35,2.84s.44,2.95.62,3.63,1,2.58,1,3.26a33,33,0,0,1-.55,3.71c-.08.79,1,3,1.28,3.75a13.19,13.19,0,0,1,.5,2.77,8.91,8.91,0,0,0,.63,1.63Z"/><path class="cls-11" d="M507,407h.83C508,406.08,507,406.24,507,407Z"/><path class="cls-11" d="M524,322.88c.44.17,1.26-.42.94-.65s-.15-.22,0-.12.32-.76.15-.92,1.27-1.2,1-2.19.4-2,.77-2,.28-1.12-.18-1.22,0-.2.15-.36a2.31,2.31,0,0,0,.28-1.33c-.1-.19.71-.4.84-.62a3.89,3.89,0,0,1,1.4-.74c.32-.07.5-1,.15-.9a3,3,0,0,1-1.44-.31,3.59,3.59,0,0,0-1.92-.16c-.4.17-.12-1,.42-1.08s.09-.9-.5-.9-2-.23-2.37-.15-1-.24-1.26-.26-2,.51-2.8.47a18.88,18.88,0,0,0-3.29.17c-.45.11-.77,1-.7,1.27s-2,.31-2.59.31a20.5,20.5,0,0,0-4.91,1.23c-.89.48-1.59,1.73-1.29,1.74s-.49.73-1,.9-1.61.24-1.88.51.28.45.39.63.42-.16.73,0a13.31,13.31,0,0,0,1.54.33c.26.12-.84.33-1.36.36s-.39,1.06,0,1.19,1.51.3,1.62.12,1.3.2,1.84.26.93,1.39,1.09,1.68a4.09,4.09,0,0,1,.16,1.59c0,.3.94.83,1.12.65s.13.46-.27.42-.14,1.09.34,1.26.17.86-.12,1.06-.13.87-.41,1.11,1,2.48,1,3.63.71,2.1,1,2.1,1.23.23,1.35.48.59-.17.77-.36a8.26,8.26,0,0,0,.85-1.23,28.42,28.42,0,0,0,1-3.05c.09-.24,1.17-.09,1.42-.22a12.29,12.29,0,0,0,1.15-.86c.21-.16,1.77-.82,2.18-1.13a23.4,23.4,0,0,0,1.45-1.9c.34-.27-.15-.19-.58-.46a.43.43,0,0,1-.1-.72A4.91,4.91,0,0,1,524,322.88Z"/><path class="cls-11" d="M537.56,312.62c-.44-.14-1.32.34-1.21.62s-.73-.35-1.31-.06-.74,1.33-.47,1.47.46,1,.46,1.11,1.14,0,1.43-.2.24.83,0,1.12.1.86.41.91.74.78,1.06.78.39-.33.58-.69V313.9h0C538.22,313.87,538,312.77,537.56,312.62Z"/><path class="cls-11" d="M526.91,338.32a.66.66,0,0,0,.59-.63c0-.27-.5-1.55-.69-1.55s-.56.94-.79.85-.35.76-.31,1.09S526.57,338.37,526.91,338.32Z"/><path class="cls-11" d="M525.68,328.82a.88.88,0,0,0,1,.49c.41-.07,1.22-.49,1.52-.51s.6-1.48.42-1.8-1.53-.27-1.87-.29a4.24,4.24,0,0,1-1.54-.57c-.2-.22-.34.83-.66,1s.16.33.29.22,0,.55-.15.77S525.56,328.48,525.68,328.82Z"/><path class="cls-11" d="M495.34,328.85c-.21.2,0,1.2.39,1.22s1.06-1.5,1.56-1.2.83.43.75.27a15.58,15.58,0,0,0-1.68-.9C496.18,328.14,495.58,328.65,495.34,328.85Z"/><path class="cls-11" d="M500.55,362.6c0,.17.88.14,1-.13s.06-.49-.17-.49S500.55,362.43,500.55,362.6Z"/><path class="cls-11" d="M496.6,361.15c.43-.08.22.6.33.84s1.12.45,1.32.62.73-.31,1.13-.27-.12-1.4-.81-1.36-1.22-.62-1.38-.7a9.24,9.24,0,0,1-1.18-.74,9.7,9.7,0,0,0-2.55-.33,1.88,1.88,0,0,0-1.33.81c-.11.19.93.33,1.23.17a2.92,2.92,0,0,1,1.95.5A1.51,1.51,0,0,0,496.6,361.15Z"/><path class="cls-11" d="M494.75,362.6c0,.17.9.06,1.11.07s.21-.14,0-.33S494.75,362.43,494.75,362.6Z"/><path class="cls-11" d="M495.39,358c-.24-.09-.42.28-.42.46a.29.29,0,0,0,.28.31C495.41,358.76,495.62,358.09,495.39,358Z"/><path class="cls-11" d="M497.25,358.14c-.07-.18-.45-.31-.57-.31s-.21.3-.18.65S497.33,358.31,497.25,358.14Z"/><path class="cls-11" d="M498.61,360.22c.36-.18.4-.6.18-.58s-.6-.63-.84-.71-.42.38-.42.59.14.35.29.31S498.25,360.39,498.61,360.22Z"/><path class="cls-8" d="M500.84,317.56c-.07-.07-.32.12-.22.24S500.94,317.69,500.84,317.56Z"/><path class="cls-8" d="M507.65,337.87c0-.08-.31.12-.21.24S507.76,338,507.65,337.87Z"/><path class="cls-3" d="M544.62,472.29H539a40.09,40.09,0,0,0-1.63-5.77l4.7-2.72a2.36,2.36,0,0,0,.87-3.22l-4.72-8.18a2.38,2.38,0,0,0-3.23-.87l-4.88,2.83a37.66,37.66,0,0,0-4.3-4.17l2.74-4.72a2.38,2.38,0,0,0-.89-3.23l-8.16-4.72a2.37,2.37,0,0,0-3.22.86l-2.82,4.9a36.46,36.46,0,0,0-5.82-1.47v-5.46a2.36,2.36,0,0,0-2.36-2.36h-9.42a2.38,2.38,0,0,0-2.38,2.36V442a39.09,39.09,0,0,0-5.76,1.64L485,438.91a2.37,2.37,0,0,0-3.23-.87l-8.19,4.73a2.35,2.35,0,0,0-.85,3.22l2.82,4.89a39.19,39.19,0,0,0-4.17,4.28l-4.71-2.72a2.39,2.39,0,0,0-3.24.87l-4.73,8.18a2.37,2.37,0,0,0,.88,3.22l4.88,2.82a38.76,38.76,0,0,0-1.46,5.8h-5.46a2.37,2.37,0,0,0-2.35,2.36v9.44a2.36,2.36,0,0,0,2.35,2.36h5.65a39.35,39.35,0,0,0,1.62,5.77L460.08,496a2.36,2.36,0,0,0-.85,3.21l4.71,8.19a2.39,2.39,0,0,0,3.23.86l4.9-2.82a39.31,39.31,0,0,0,4.28,4.18l-2.73,4.71a2.37,2.37,0,0,0,.87,3.22l8.19,4.72a2.34,2.34,0,0,0,3.21-.86l2.83-4.88a40,40,0,0,0,5.8,1.45v5.47a2.36,2.36,0,0,0,2.36,2.35h9.44a2.38,2.38,0,0,0,2.37-2.36v-5.65a40.63,40.63,0,0,0,5.76-1.61l2.72,4.7a2.33,2.33,0,0,0,3.21.85l8.19-4.71a2.37,2.37,0,0,0,.86-3.23l-2.83-4.9a36,36,0,0,0,4.18-4.28l4.73,2.73a2.37,2.37,0,0,0,3.22-.86l4.72-8.18a2.37,2.37,0,0,0-.86-3.22l-4.89-2.83a39.91,39.91,0,0,0,1.47-5.79h5.45a2.38,2.38,0,0,0,2.36-2.37v-9.44A2.36,2.36,0,0,0,544.62,472.29Zm-43.55,26.44a18.84,18.84,0,1,1,18.84-18.84A18.84,18.84,0,0,1,501.07,498.73Z"/><path class="cls-2" d="M500.25,504.36a24.48,24.48,0,0,1,0-48.94V434h-4.41a2.38,2.38,0,0,0-2.38,2.36V442a39.09,39.09,0,0,0-5.76,1.64L485,438.91a2.37,2.37,0,0,0-3.23-.87l-8.19,4.73a2.35,2.35,0,0,0-.85,3.22l2.82,4.89a39.19,39.19,0,0,0-4.17,4.28l-4.71-2.72a2.39,2.39,0,0,0-3.24.87l-4.73,8.18a2.37,2.37,0,0,0,.88,3.22l4.88,2.82a38.76,38.76,0,0,0-1.46,5.8h-5.46a2.37,2.37,0,0,0-2.35,2.36v9.44a2.36,2.36,0,0,0,2.35,2.36h5.65a39.35,39.35,0,0,0,1.62,5.77L460.08,496a2.36,2.36,0,0,0-.85,3.21l4.71,8.19a2.39,2.39,0,0,0,3.23.86l4.9-2.82a39.31,39.31,0,0,0,4.28,4.18l-2.73,4.71a2.37,2.37,0,0,0,.87,3.22l8.19,4.72a2.34,2.34,0,0,0,3.21-.86l2.83-4.88a40,40,0,0,0,5.8,1.45v5.47a2.36,2.36,0,0,0,2.36,2.35h3.37Z"/><path class="cls-3" d="M501.07,450.07a29.83,29.83,0,1,0,29.83,29.82A29.82,29.82,0,0,0,501.07,450.07Zm0,54.31a24.49,24.49,0,1,1,24.49-24.49A24.48,24.48,0,0,1,501.07,504.38Z"/><path class="cls-2" d="M501.07,450.07l-.82,0v5.33h.82a24.49,24.49,0,1,1,0,49l-.82,0v5.34l.82,0a29.83,29.83,0,1,0,0-59.65Z"/><path class="cls-2" d="M501.07,454.92h-.68v4.48c.23,0,.45,0,.68,0a20.51,20.51,0,1,1,0,41h-.68v4.46l.68,0a25,25,0,1,0,0-49.95Z"/><path class="cls-19" d="M571,427.1h-3.43a2.09,2.09,0,0,1-1.89-1.37l-.65-1.55a2.12,2.12,0,0,1,.37-2.3l2.42-2.43a1.43,1.43,0,0,0,0-2L564,413.66a1.46,1.46,0,0,0-2,0l-2.42,2.43a2.17,2.17,0,0,1-2.31.37l-1.55-.65a2.12,2.12,0,0,1-1.37-1.9V410.5A1.46,1.46,0,0,0,552.9,409h-5.31a1.44,1.44,0,0,0-1.43,1.46v3.41a2.13,2.13,0,0,1-1.38,1.9l-1.55.65a2.19,2.19,0,0,1-2.32-.37l-2.41-2.43a1.45,1.45,0,0,0-2,0l-3.75,3.75a1.43,1.43,0,0,0,0,2l2.43,2.43a2.18,2.18,0,0,1,.37,2.3l-.64,1.55a2.13,2.13,0,0,1-1.9,1.37h-3.43a1.46,1.46,0,0,0-1.45,1.46v5.28a1.46,1.46,0,0,0,1.45,1.45H533a2.15,2.15,0,0,1,1.9,1.37l.64,1.55a2.19,2.19,0,0,1-.37,2.31L532.71,443a1.43,1.43,0,0,0,0,2l3.75,3.75a1.45,1.45,0,0,0,2,0l2.41-2.43a2.2,2.2,0,0,1,2.32-.38l1.55.65a2.15,2.15,0,0,1,1.38,1.9v3.42a1.43,1.43,0,0,0,1.43,1.45h5.31a1.46,1.46,0,0,0,1.44-1.45v-3.42a2.14,2.14,0,0,1,1.37-1.9l1.55-.65a2.18,2.18,0,0,1,2.31.38l2.42,2.43a1.46,1.46,0,0,0,2,0l3.73-3.75a1.43,1.43,0,0,0,0-2l-2.42-2.43a2.13,2.13,0,0,1-.37-2.31l.65-1.55a2.1,2.1,0,0,1,1.89-1.37H571a1.44,1.44,0,0,0,1.44-1.45v-5.28A1.44,1.44,0,0,0,571,427.1Zm-20.71,11.08a7,7,0,1,1,7-7A7,7,0,0,1,550.24,438.18Z"/><path class="cls-4" d="M550.31,438.18h0a7,7,0,0,1,0-14h.07V409h-2.72a1.44,1.44,0,0,0-1.43,1.46v3.41a2.13,2.13,0,0,1-1.38,1.9l-1.55.65a2.19,2.19,0,0,1-2.32-.37l-2.41-2.43a1.45,1.45,0,0,0-2,0l-3.75,3.75a1.43,1.43,0,0,0,0,2l2.43,2.43a2.18,2.18,0,0,1,.37,2.3l-.64,1.55a2.13,2.13,0,0,1-1.9,1.37h-3.43a1.46,1.46,0,0,0-1.45,1.46v5.28a1.46,1.46,0,0,0,1.45,1.45H533a2.15,2.15,0,0,1,1.9,1.37l.64,1.55a2.19,2.19,0,0,1-.37,2.31L532.71,443a1.43,1.43,0,0,0,0,2l3.75,3.75a1.45,1.45,0,0,0,2,0l2.41-2.43a2.2,2.2,0,0,1,2.32-.38l1.55.65a2.15,2.15,0,0,1,1.38,1.9v3.42a1.43,1.43,0,0,0,1.43,1.45h2.72Z"/></g></svg>