<svg xmlns="http://www.w3.org/2000/svg" viewBox="0 0 600 600"><defs><title>Unfolding Events</title><style>.cls-1{isolation:isolate;}.cls-15,.cls-2{fill:#fff;}.cls-3{fill:#ea4646;}.cls-4{fill:#e51818;}.cls-5,.cls-6,.cls-7{fill:none;}.cls-5,.cls-7{stroke:#000;}.cls-5{stroke-width:2.41px;}.cls-6{stroke:#e51818;}.cls-6,.cls-7{stroke-width:4.83px;}.cls-8{fill:#004ab3;}.cls-9{fill:#cdd5d8;mix-blend-mode:multiply;}.cls-10{fill:#ef7474;}.cls-11{fill:#30363d;}.cls-12{fill:#474f59;}.cls-13{fill:#2c5871;}.cls-14{fill:#0e303f;}.cls-15{opacity:0.3;}.cls-16{fill:#336ec2;}.cls-17{fill:#f0edda;}</style></defs><g class="cls-1"><g id="_01" data-name="01"><path class="cls-2" d="M93.71,413.84V142.6H484.92V413.84a30.57,30.57,0,0,1-30.47,30.47H77.3C94.62,440.11,93.53,429.3,93.71,413.84Z"/><path class="cls-3" d="M93.74,427V177.8H63.51V430.52a13.8,13.8,0,0,0,13.36,13.73A17.32,17.32,0,0,0,93.74,427Z"/><rect class="cls-4" x="121.53" y="341.44" width="171.38" height="18.5"/><line class="cls-5" x1="352.06" y1="168.8" x2="459.48" y2="168.8"/><line class="cls-6" x1="121.53" y1="233.54" x2="304.99" y2="233.54"/><line class="cls-5" x1="121.53" y1="380.59" x2="338.13" y2="380.59"/><line class="cls-5" x1="121.53" y1="244.65" x2="338.13" y2="244.65"/><line class="cls-5" x1="121.53" y1="392.47" x2="338.13" y2="392.47"/><line class="cls-5" x1="121.53" y1="404.32" x2="338.13" y2="404.32"/><line class="cls-5" x1="121.53" y1="416.2" x2="338.13" y2="416.2"/><line class="cls-7" x1="355.19" y1="300.03" x2="428.46" y2="300.03"/><line class="cls-5" x1="355.19" y1="313" x2="454.95" y2="313"/><line class="cls-5" x1="355.19" y1="325.96" x2="454.95" y2="325.96"/><line class="cls-5" x1="355.19" y1="338.93" x2="454.95" y2="338.93"/><line class="cls-5" x1="355.19" y1="351.9" x2="454.95" y2="351.9"/><rect class="cls-8" x="121.53" y="264.14" width="216.6" height="62.02"/><rect class="cls-8" x="355.19" y="179.97" width="103" height="102.99"/><rect class="cls-4" x="355.19" y="376.35" width="103" height="41.5"/><path d="M125.4,169.13a3.62,3.62,0,0,1,.86.2,3.25,3.25,0,0,1,.74.42c.23.19.5.43.8.73L158,202c-.1-.77-.17-1.51-.21-2.24s-.07-1.41-.07-2V169.09h9.46v47.17h-5.55a5.8,5.8,0,0,1-2.11-.33,4.63,4.63,0,0,1-1.64-1.18L127.8,183.34c.07.7.14,1.39.17,2.07s.06,1.31.06,1.88v29h-9.44V169.09h5.62C124.68,169.09,125.08,169.1,125.4,169.13Z"/><path d="M215.21,169.09v7H189.65v13.08h20.14v6.75H189.65v13.34h25.56v7H178.86V169.09Z"/><path d="M219.16,169.09h9a4.62,4.62,0,0,1,2.33.53,2.68,2.68,0,0,1,1.26,1.45l9.8,28.22a22.84,22.84,0,0,1,.66,2.27c.2.82.4,1.68.58,2.59.21-.91.44-1.77.69-2.59s.53-1.57.82-2.27l11.32-28.22a3.22,3.22,0,0,1,1.26-1.37,4.05,4.05,0,0,1,2.29-.61h3.15a4.51,4.51,0,0,1,2.31.53,2.85,2.85,0,0,1,1.28,1.45l11.23,28.22a30.8,30.8,0,0,1,1.52,4.64c.18-.85.38-1.67.58-2.45s.4-1.51.62-2.19l9.8-28.22a2.7,2.7,0,0,1,1.24-1.4,4.35,4.35,0,0,1,2.31-.58h8.41l-17.89,47.17H274L261.44,184c-.16-.42-.32-.86-.49-1.34s-.35-1-.5-1.53c-.16.54-.33,1.05-.5,1.53s-.35.92-.51,1.34l-12.71,32.23h-9.68Z"/><path d="M338.81,177.67a2.66,2.66,0,0,1-1,1,3,3,0,0,1-1.37.29,4,4,0,0,1-1.79-.51c-.67-.33-1.45-.71-2.36-1.12a22.16,22.16,0,0,0-3.17-1.13,16.3,16.3,0,0,0-4.28-.51,15,15,0,0,0-3.89.45,8.78,8.78,0,0,0-2.78,1.22,5.11,5.11,0,0,0-1.7,1.87,5.24,5.24,0,0,0-.56,2.4,3.69,3.69,0,0,0,1.14,2.77,9.37,9.37,0,0,0,3,1.9,31.48,31.48,0,0,0,4.27,1.4c1.58.42,3.22.85,4.88,1.32s3.28,1,4.87,1.64a17.35,17.35,0,0,1,4.27,2.34,10.93,10.93,0,0,1,3,3.48,10.14,10.14,0,0,1,1.14,5,13.64,13.64,0,0,1-5.24,10.84,19.34,19.34,0,0,1-6.28,3.27,27.86,27.86,0,0,1-8.49,1.19,33.44,33.44,0,0,1-10.55-1.7,29.49,29.49,0,0,1-4.58-2,21.59,21.59,0,0,1-3.81-2.54l3.12-4.21a3.68,3.68,0,0,1,1-.76,3.09,3.09,0,0,1,1.39-.32,4.41,4.41,0,0,1,2.15.67c.77.45,1.67.94,2.73,1.49a22.69,22.69,0,0,0,3.71,1.49,17.4,17.4,0,0,0,5.12.66c3,0,5.42-.59,7.09-1.78a5.84,5.84,0,0,0,2.51-5.1,4.2,4.2,0,0,0-1.14-3,9,9,0,0,0-3-2,25.89,25.89,0,0,0-4.27-1.35c-1.59-.37-3.21-.78-4.86-1.21a50.17,50.17,0,0,1-4.87-1.57A16.26,16.26,0,0,1,310,191.2a10.93,10.93,0,0,1-3-3.67,11.86,11.86,0,0,1-1.13-5.43,10.94,10.94,0,0,1,1.25-5,13.15,13.15,0,0,1,3.66-4.34,19.13,19.13,0,0,1,5.93-3,25.9,25.9,0,0,1,8-1.14,32.38,32.38,0,0,1,9.41,1.31,22.38,22.38,0,0,1,7.33,3.65Z"/><path class="cls-9" d="M570.68,248.26a97.26,97.26,0,1,1,0-137.55A97.25,97.25,0,0,1,570.68,248.26Z"/><path class="cls-3" d="M570.68,235.3a97.26,97.26,0,1,1,0-137.53A97.25,97.25,0,0,1,570.68,235.3Z"/><path class="cls-4" d="M567,231.66a92.1,92.1,0,1,1,0-130.25A92.08,92.08,0,0,1,567,231.66Z"/><path class="cls-3" d="M593.89,161.86a118.35,118.35,0,0,0-16.16-20.12c-36-36-87.55-42.71-115.2-15.07s-20.9,79.23,15.07,115.2a117.56,117.56,0,0,0,20.95,16.68,92.07,92.07,0,0,0,95.34-96.69Z"/><path class="cls-10" d="M561.37,228.62a7,7,0,0,1-9.93,0l-11.66-11.68a7,7,0,0,1,0-9.92l2.61-2.61a7,7,0,0,1,9.92,0L564,216.08a7,7,0,0,1,0,9.93Z"/><path class="cls-10" d="M547.35,212a64.27,64.27,0,1,1,0-90.9A64.27,64.27,0,0,1,547.35,212Z"/><path class="cls-2" d="M543.74,208.36a59.15,59.15,0,1,1,0-83.65A59.16,59.16,0,0,1,543.74,208.36Z"/><path class="cls-11" d="M464.81,129.45a52.45,52.45,0,1,1,0,74.17A52.44,52.44,0,0,1,464.81,129.45Z"/><path class="cls-12" d="M475,211.52a52.39,52.39,0,0,0,71.86-71.86A52.39,52.39,0,0,0,475,211.52Z"/><path class="cls-13" d="M534.12,434.34a6,6,0,0,0-1.6-2c-27.54-7.34-61.69-12.11-75.47-6.62L327,476.79a49.51,49.51,0,0,0-11.41,6.38l5.93,12a51.22,51.22,0,0,1,4.66-2.42l128.7-57c14-6.2,48-2.44,77,6.5A6,6,0,0,0,534.12,434.34Z"/><path class="cls-14" d="M532.32,440.39c-29-8.89-63.22-12.57-77.3-6.31L325.54,491.47c-1.62.72-3.17,1.55-4.69,2.41l.66,1.32a51.22,51.22,0,0,1,4.66-2.42l128.7-57c14-6.2,48-2.44,77,6.5a5.75,5.75,0,0,0,2.93-4.55A5.8,5.8,0,0,1,532.32,440.39Z"/><path class="cls-13" d="M345.78,527.26a6.17,6.17,0,0,1-.61-2.5c10.94-26.32,27.95-56.33,40.68-63.91l119.67-72.13a48.82,48.82,0,0,1,12-5.15l5.93,12a51.2,51.2,0,0,0-4.75,2.23L395.16,465.22c-13.44,7.36-31.18,36.64-41.68,65A6,6,0,0,1,345.78,527.26Z"/><path class="cls-14" d="M351.68,529.5c10.62-28.45,28.51-57.8,42-65.19L518,396.51a45.09,45.09,0,0,1,4.78-2.25l.65,1.31a51.2,51.2,0,0,0-4.75,2.23L395.16,465.22c-13.44,7.36-31.18,36.64-41.68,65a5.77,5.77,0,0,1-5.4-.45A5.81,5.81,0,0,0,351.68,529.5Z"/><path class="cls-14" d="M322.22,475.47c-.25-5,2-10.39,6-13.26a213.85,213.85,0,0,1,63.06-30.6,16,16,0,0,1,13.72,3l3.87-1.9c-5-4.8-12.75-7.28-19.5-5.45a203.69,203.69,0,0,0-63.45,30.77c-4.7,3.41-11.81,16.91-11.81,16.91a2.83,2.83,0,0,0-.77,3.56c.17.36.36.71.52,1.08Z"/><path class="cls-15" d="M416.5,463.73c1.16,6.78-2.41,15-7.18,17.72q-25.59,14.21-52.41,25.83c-5.06,2.12-13.79-.13-18.5-5.23a107.89,107.89,0,0,1-14-19.68c-3.21-5.82-.86-14.47,4.66-18.41a221.58,221.58,0,0,1,63-30.62c6.52-1.91,14.81,1.5,17.43,7.54A104.9,104.9,0,0,1,416.5,463.73Z"/><path class="cls-14" d="M390.25,429.17A209.52,209.52,0,0,0,326.81,460c-4.7,3.38-12,16.6-12,16.6A2.82,2.82,0,0,0,314,480L321,494.1c.6,1.19,1.81,1.13,3,1,1.58-.18,4.67,1.6,5.84,3.15,1.81,2.34,3.7,4.65,5.74,6.91,5.73,6.19,16.4,9.18,23.21,6.39,9-3.84,18-8,26.74-12.29s17.5-8.93,26-13.74c6.36-3.69,10.49-13.92,9.1-22.22a106.54,106.54,0,0,0-7.17-23.59C410,431.68,399.3,426.64,390.25,429.17Zm26.25,34.56c1.16,6.78-2.41,15-7.18,17.72q-25.59,14.21-52.41,25.83c-5.06,2.12-13.79-.13-18.5-5.23a107.89,107.89,0,0,1-14-19.68c-3.21-5.82-.86-14.47,4.66-18.41a221.58,221.58,0,0,1,63-30.62c6.52-1.91,14.81,1.5,17.43,7.54A104.9,104.9,0,0,1,416.5,463.73Z"/><path class="cls-13" d="M344.54,506.29a18.55,18.55,0,0,1-6.13-4.24,107.89,107.89,0,0,1-14-19.68c-3.21-5.82-.86-14.47,4.66-18.41a221.58,221.58,0,0,1,63-30.62,15.18,15.18,0,0,1,9.6.57,15.65,15.65,0,0,0-11.57-1.46,217.34,217.34,0,0,0-62.93,30.87c-5.51,4-7.83,12.65-4.64,18.44a106.51,106.51,0,0,0,14,19.59A18.93,18.93,0,0,0,344.54,506.29Z"/><path class="cls-14" d="M508.07,383.78c-3.84-3.26-9.47-4.72-14.14-3.34a213.65,213.65,0,0,0-62.64,31.42,15.92,15.92,0,0,0-6,12.73l-3.86,1.92c-.76-6.9,2-14.55,7.54-18.8a203.73,203.73,0,0,1,63-31.63c5.57-1.64,20.6.94,20.59.92a2.9,2.9,0,0,1,3.31,1.58c.18.35.35.71.54,1.06Z"/><path class="cls-15" d="M441.38,451.44c4.69,5.06,13.38,7.23,18.44,5.11q26.82-11.66,52.37-25.87c4.77-2.72,8.31-11,7.12-17.88a107.65,107.65,0,0,0-7.07-23.09c-2.66-6.11-11-9.48-17.44-7.5a220.38,220.38,0,0,0-62.67,31.38c-5.48,4-7.82,12.67-4.64,18.41A105.13,105.13,0,0,0,441.38,451.44Z"/><path class="cls-14" d="M429.94,409.59A210,210,0,0,1,493,378c5.55-1.68,20.46.63,20.45.62a2.81,2.81,0,0,1,3.26,1.49q3.47,7,6.94,14c.59,1.23-.21,2.15-1.06,3-1.1,1.15-1.56,4.69-1.06,6.55.77,2.86,1.44,5.79,2,8.76,1.42,8.32-2.69,18.62-9.07,22.32-8.51,4.79-17.24,9.42-26,13.74s-17.75,8.43-26.77,12.28c-6.78,2.81-17.42-.14-23.14-6.29a107.53,107.53,0,0,1-14.39-20.06C419.9,426.81,422.42,415.23,429.94,409.59Zm11.44,41.85c4.69,5.06,13.38,7.23,18.44,5.11q26.82-11.66,52.37-25.87c4.77-2.72,8.31-11,7.12-17.88a107.65,107.65,0,0,0-7.07-23.09c-2.66-6.11-11-9.48-17.44-7.5a220.38,220.38,0,0,0-62.67,31.38c-5.48,4-7.82,12.67-4.64,18.41A105.13,105.13,0,0,0,441.38,451.44Z"/><path class="cls-13" d="M519,420.26a18.14,18.14,0,0,0,.36-7.46,107.65,107.65,0,0,0-7.07-23.09c-2.66-6.11-11-9.48-17.44-7.5a220.38,220.38,0,0,0-62.67,31.38,15.23,15.23,0,0,0-5.39,8,15.57,15.57,0,0,1,5.88-10.07,216.67,216.67,0,0,1,62.79-31.14c6.5-1.94,14.8,1.48,17.46,7.55a107.38,107.38,0,0,1,7,23A19.14,19.14,0,0,1,519,420.26Z"/><path class="cls-14" d="M415,425.73a30.11,30.11,0,0,1-12.15,3.69c5.94,3.29,11.69,11.44,13.09,17-1.37-5.18,1.43-8,4.88-8.89Z"/><path class="cls-14" d="M412,427.21a30,30,0,0,0,10.31-7.42c-1,6.73,2,16.27,5.52,20.74-3.27-4.24-7.26-3.75-10-1.53Z"/><path class="cls-16" d="M101,509.84,18.81,274.42c-2.08,1.25-3,4.21-2.28,7.25L96.66,511.34Z"/><path class="cls-8" d="M86.44,514.9l10.22-3.56L16.53,281.67h0l0-.06,0,.08c-1.46-3.2-4.5-5-7.12-4.08s-3.89,4.23-3.06,7.62a.41.41,0,0,0,0-.08v.05l0,0Z"/><path class="cls-16" d="M6.32,285.23C5,282.39,2.42,280.66,0,281L82.15,516.4l4.29-1.5Z"/><path class="cls-17" d="M0,281c2.41-.31,5,1.42,6.32,4.26h0a.29.29,0,0,1,0-.08.41.41,0,0,1,0,.08c-.83-3.39.42-6.7,3.06-7.62s5.66.88,7.12,4.08l0-.07,0,.05h0c-.75-3.06.2-6,2.3-7.25L4,262.2Z"/><path d="M11.28,268.18,4,262.2l-2,9.21a16.34,16.34,0,0,0,4.88-.88A16.17,16.17,0,0,0,11.28,268.18Z"/><polygon class="cls-3" points="100.99 509.95 96.69 511.44 99.25 518.77 103.54 517.28 100.99 509.95"/><rect class="cls-4" x="87.46" y="513" width="10.81" height="7.77" transform="translate(-164.79 59.27) rotate(-19.2)"/><rect class="cls-3" x="83.34" y="515.53" width="4.54" height="7.77" transform="translate(-166.84 57.47) rotate(-19.3)"/></g></g></svg>